<svg width="483" height="842" viewBox="0 0 483 842" fill="none" xmlns="http://www.w3.org/2000/svg">
<path d="M315.814 241.322C357.821 312.297 348.001 411.854 312.339 502.918C276.689 593.95 215.496 675.752 155.773 711.1C36.5099 781.686 -128.897 723.905 -213.46 581.026C-298.024 438.148 -269.09 265.345 -149.827 194.758C-89.9583 159.325 5.51309 135.325 96.6083 138.103C187.756 140.883 273.857 170.431 315.814 241.322Z" stroke="#FCD87C" stroke-width="4"/>
<path d="M369.019 464.544C351.742 545.187 276.995 611.679 189.023 654.4C101.08 697.106 0.629069 715.705 -67.2308 701.166C-202.742 672.134 -285.084 517.48 -250.303 355.136C-215.522 192.793 -77.0476 85.4474 58.4631 114.48C126.488 129.054 212.917 176.178 277.967 240.011C343.054 303.88 386.277 383.994 369.019 464.544Z" stroke="#FCD87C" stroke-width="4"/>
<rect x="320" y="315.627" width="32" height="32" rx="8" transform="rotate(-45 320 315.627)" fill="#FCD87C"/>
</svg>
