<svg width="398" height="842" viewBox="0 0 398 842" fill="none" xmlns="http://www.w3.org/2000/svg">
<path d="M684.814 241.322C726.821 312.297 717.001 411.854 681.339 502.918C645.689 593.95 584.496 675.752 524.773 711.1C405.51 781.686 240.103 723.905 155.54 581.026C70.9763 438.148 99.9103 265.345 219.173 194.758C279.042 159.325 374.513 135.325 465.608 138.103C556.756 140.883 642.857 170.431 684.814 241.322Z" stroke="#FCD87C" stroke-width="4"/>
<path d="M738.019 464.544C720.742 545.187 645.995 611.679 558.023 654.4C470.08 697.106 369.629 715.705 301.769 701.166C166.258 672.134 83.9156 517.48 118.697 355.136C153.478 192.793 291.952 85.4474 427.463 114.48C495.488 129.054 581.917 176.178 646.967 240.011C712.054 303.88 755.277 383.994 738.019 464.544Z" stroke="#FCD87C" stroke-width="4"/>
</svg>
