<svg width="208" height="49" viewBox="0 0 208 49" fill="none" xmlns="http://www.w3.org/2000/svg">
<rect x="0.000244141" y="0.5" width="48" height="48" rx="16" fill="white"/>
<path d="M29.2502 24.875C29.2502 23.7625 28.9203 22.6749 28.3023 21.7499C27.6842 20.8249 26.8057 20.1039 25.7778 19.6782C24.75 19.2524 23.619 19.141 22.5279 19.3581C21.4367 19.5751 20.4344 20.1109 19.6478 20.8975C18.8611 21.6842 18.3254 22.6865 18.1083 23.7776C17.8913 24.8688 18.0027 25.9998 18.4284 27.0276C18.8542 28.0554 19.5751 28.9339 20.5002 29.552C21.4252 30.1701 22.5127 30.5 23.6252 30.5V24.875H29.2502Z" fill="white"/>
<path fill-rule="evenodd" clip-rule="evenodd" d="M35.2502 30.875H29.6252V36.5H23.6252C21.326 36.5 19.0785 35.8182 17.1667 34.5408C15.255 33.2635 13.765 31.4479 12.8851 29.3237C12.0053 27.1995 11.7751 24.8621 12.2236 22.6071C12.6722 20.3521 13.7793 18.2807 15.4051 16.6549C17.0309 15.0291 19.1023 13.9219 21.3573 13.4734C23.6124 13.0248 25.9498 13.255 28.0739 14.1349C30.1981 15.0148 32.0137 16.5048 33.2911 18.4165C34.5685 20.3282 35.2502 22.5758 35.2502 24.875V30.875ZM23.6252 30.5C22.5127 30.5 21.4252 30.1701 20.5002 29.552C19.5751 28.9339 18.8542 28.0554 18.4284 27.0276C18.1444 26.3418 18.0003 25.6101 18.0002 24.875C18.0002 24.5083 18.0361 24.1408 18.1083 23.7776C18.3254 22.6865 18.8611 21.6842 19.6478 20.8975C20.4344 20.1109 21.4367 19.5751 22.5279 19.3581C22.891 19.2859 23.2586 19.25 23.6252 19.25C24.3604 19.25 25.0921 19.3941 25.7778 19.6782C26.8057 20.1039 27.6842 20.8249 28.3023 21.7499C28.9203 22.6749 29.2502 23.7625 29.2502 24.875H23.6252V30.5Z" fill="#5F65F6"/>
<path d="M79.0201 24.0456C79.0201 26.1076 78.6292 27.8619 77.8475 29.3084C77.0719 30.7549 76.0132 31.8597 74.6714 32.623C73.3357 33.3801 71.8338 33.7587 70.1657 33.7587C68.4853 33.7587 66.9772 33.377 65.6415 32.6138C64.3058 31.8505 63.2502 30.7456 62.4746 29.2991C61.6991 27.8526 61.3113 26.1015 61.3113 24.0456C61.3113 21.9836 61.6991 20.2293 62.4746 18.7828C63.2502 17.3363 64.3058 16.2345 65.6415 15.4774C66.9772 14.7141 68.4853 14.3325 70.1657 14.3325C71.8338 14.3325 73.3357 14.7141 74.6714 15.4774C76.0132 16.2345 77.0719 17.3363 77.8475 18.7828C78.6292 20.2293 79.0201 21.9836 79.0201 24.0456ZM74.9668 24.0456C74.9668 22.7099 74.7668 21.5835 74.3667 20.6663C73.9727 19.7492 73.4157 19.0536 72.6955 18.5797C71.9753 18.1057 71.1321 17.8687 70.1657 17.8687C69.1993 17.8687 68.356 18.1057 67.6359 18.5797C66.9157 19.0536 66.3556 19.7492 65.9555 20.6663C65.5615 21.5835 65.3645 22.7099 65.3645 24.0456C65.3645 25.3813 65.5615 26.5077 65.9555 27.4248C66.3556 28.342 66.9157 29.0375 67.6359 29.5115C68.356 29.9855 69.1993 30.2224 70.1657 30.2224C71.1321 30.2224 71.9753 29.9855 72.6955 29.5115C73.4157 29.0375 73.9727 28.342 74.3667 27.4248C74.7668 26.5077 74.9668 25.3813 74.9668 24.0456Z" fill="white"/>
<path d="M85.8409 25.3013V33.5001H81.9077V19.3183H85.6563V21.8204H85.8225C86.1364 20.9956 86.6627 20.3432 87.4013 19.8631C88.1399 19.3768 89.0355 19.1337 90.0881 19.1337C91.0729 19.1337 91.9316 19.3491 92.6641 19.78C93.3966 20.2108 93.9659 20.8264 94.3722 21.6266C94.7784 22.4206 94.9816 23.3685 94.9816 24.4703V33.5001H91.0483V25.172C91.0545 24.3041 90.8329 23.627 90.3835 23.1408C89.9342 22.6483 89.3156 22.4021 88.5277 22.4021C87.9984 22.4021 87.5306 22.516 87.1243 22.7437C86.7242 22.9715 86.4103 23.3039 86.1826 23.7409C85.961 24.1718 85.8471 24.6919 85.8409 25.3013Z" fill="white"/>
<path d="M104.545 33.7771C103.086 33.7771 101.83 33.4817 100.778 32.8908C99.7311 32.2937 98.9248 31.4504 98.3585 30.3609C97.7922 29.2653 97.5091 27.9696 97.5091 26.4739C97.5091 25.015 97.7922 23.7347 98.3585 22.6329C98.9248 21.5311 99.7219 20.6725 100.75 20.057C101.784 19.4414 102.997 19.1337 104.388 19.1337C105.323 19.1337 106.194 19.2845 107.001 19.5861C107.813 19.8815 108.521 20.3278 109.124 20.9248C109.734 21.5219 110.207 22.2729 110.546 23.1777C110.885 24.0764 111.054 25.1289 111.054 26.3354V27.4156H99.0787V24.9781H107.351C107.351 24.4118 107.228 23.9102 106.982 23.4731C106.736 23.0361 106.394 22.6945 105.957 22.4483C105.526 22.1959 105.025 22.0697 104.452 22.0697C103.855 22.0697 103.326 22.2082 102.864 22.4852C102.409 22.7561 102.052 23.1223 101.793 23.5839C101.535 24.0394 101.402 24.5472 101.396 25.1074V27.4248C101.396 28.1266 101.525 28.7329 101.784 29.2437C102.049 29.7546 102.421 30.1486 102.901 30.4256C103.381 30.7025 103.951 30.841 104.609 30.841C105.046 30.841 105.446 30.7795 105.81 30.6564C106.173 30.5333 106.484 30.3486 106.742 30.1024C107.001 29.8562 107.198 29.5546 107.333 29.1976L110.971 29.4376C110.786 30.3117 110.408 31.0749 109.835 31.7274C109.269 32.3737 108.536 32.8784 107.638 33.2416C106.745 33.5986 105.714 33.7771 104.545 33.7771Z" fill="white"/>
<path d="M111.654 17.8872V14.591H127.184V17.8872H121.395V33.5001H117.443V17.8872H111.654Z" fill="white"/>
<path d="M128.195 33.5001V19.3183H132.008V21.7927H132.156C132.414 20.9125 132.848 20.2478 133.458 19.7984C134.067 19.3429 134.769 19.1152 135.563 19.1152C135.76 19.1152 135.972 19.1275 136.2 19.1521C136.428 19.1767 136.628 19.2106 136.8 19.2537V22.7437C136.615 22.6883 136.36 22.6391 136.034 22.596C135.707 22.5529 135.409 22.5314 135.138 22.5314C134.559 22.5314 134.042 22.6576 133.587 22.9099C133.138 23.1561 132.781 23.5008 132.516 23.944C132.257 24.3872 132.128 24.8981 132.128 25.4767V33.5001H128.195Z" fill="white"/>
<path d="M142.471 33.7679C141.566 33.7679 140.76 33.6109 140.052 33.297C139.344 32.9769 138.784 32.5061 138.372 31.8844C137.966 31.2565 137.762 30.4748 137.762 29.5392C137.762 28.7513 137.907 28.0896 138.196 27.5541C138.486 27.0186 138.88 26.5877 139.378 26.2615C139.877 25.9353 140.443 25.6891 141.077 25.5229C141.717 25.3567 142.388 25.2397 143.09 25.172C143.915 25.0858 144.579 25.0058 145.084 24.932C145.589 24.8519 145.955 24.735 146.183 24.5811C146.411 24.4272 146.525 24.1995 146.525 23.8979V23.8425C146.525 23.2577 146.34 22.8053 145.971 22.4852C145.607 22.1651 145.09 22.0051 144.419 22.0051C143.712 22.0051 143.148 22.1621 142.73 22.476C142.311 22.7838 142.034 23.1715 141.899 23.6393L138.261 23.3439C138.446 22.4821 138.809 21.7373 139.351 21.1095C139.892 20.4755 140.591 19.9892 141.446 19.6507C142.308 19.306 143.305 19.1337 144.438 19.1337C145.226 19.1337 145.98 19.226 146.7 19.4106C147.426 19.5953 148.07 19.8815 148.63 20.2693C149.196 20.6571 149.642 21.1557 149.968 21.765C150.295 22.3683 150.458 23.0915 150.458 23.9348V33.5001H146.728V31.5335H146.617C146.389 31.9767 146.084 32.3676 145.703 32.7061C145.321 33.0385 144.863 33.3001 144.327 33.4909C143.792 33.6756 143.173 33.7679 142.471 33.7679ZM143.598 31.0534C144.176 31.0534 144.687 30.9395 145.13 30.7118C145.574 30.4779 145.921 30.164 146.174 29.77C146.426 29.3761 146.552 28.9298 146.552 28.4312V26.9263C146.429 27.0063 146.26 27.0802 146.044 27.1479C145.835 27.2094 145.598 27.2679 145.333 27.3233C145.069 27.3725 144.804 27.4187 144.539 27.4618C144.275 27.4987 144.035 27.5326 143.819 27.5633C143.358 27.6311 142.954 27.7388 142.61 27.8865C142.265 28.0342 141.997 28.2343 141.806 28.4866C141.616 28.7329 141.52 29.0406 141.52 29.4099C141.52 29.9454 141.714 30.3548 142.102 30.6379C142.496 30.9149 142.994 31.0534 143.598 31.0534Z" fill="white"/>
<path d="M159.917 33.7771C158.464 33.7771 157.215 33.4694 156.168 32.8538C155.128 32.2321 154.328 31.3704 153.768 30.2686C153.214 29.1668 152.937 27.8988 152.937 26.4646C152.937 25.012 153.217 23.7378 153.777 22.6422C154.343 21.5404 155.147 20.6817 156.187 20.0662C157.227 19.4445 158.464 19.1337 159.898 19.1337C161.136 19.1337 162.219 19.3583 163.148 19.8077C164.078 20.257 164.813 20.8879 165.355 21.7004C165.897 22.5129 166.195 23.467 166.251 24.5626H162.539C162.434 23.8548 162.157 23.2854 161.708 22.8545C161.265 22.4175 160.683 22.199 159.963 22.199C159.354 22.199 158.821 22.3652 158.366 22.6976C157.916 23.0238 157.566 23.5008 157.313 24.1287C157.061 24.7565 156.935 25.5167 156.935 26.4092C156.935 27.3141 157.058 28.0835 157.304 28.7175C157.556 29.3515 157.91 29.8346 158.366 30.167C158.821 30.4994 159.354 30.6656 159.963 30.6656C160.412 30.6656 160.816 30.5733 161.173 30.3886C161.536 30.204 161.834 29.9362 162.068 29.5854C162.308 29.2284 162.465 28.8006 162.539 28.302H166.251C166.189 29.3853 165.894 30.3394 165.364 31.1642C164.841 31.9829 164.118 32.623 163.195 33.0847C162.271 33.5463 161.179 33.7771 159.917 33.7771Z" fill="white"/>
<path d="M172.333 29.4192L172.342 24.7011H172.915L177.457 19.3183H181.972L175.869 26.4462H174.937L172.333 29.4192ZM168.769 33.5001V14.591H172.702V33.5001H168.769ZM177.633 33.5001L173.459 27.3233L176.082 24.5442L182.24 33.5001H177.633Z" fill="white"/>
<path d="M189.781 33.7771C188.322 33.7771 187.066 33.4817 186.014 32.8908C184.967 32.2937 184.161 31.4504 183.595 30.3609C183.029 29.2653 182.745 27.9696 182.745 26.4739C182.745 25.015 183.029 23.7347 183.595 22.6329C184.161 21.5311 184.958 20.6725 185.986 20.057C187.02 19.4414 188.233 19.1337 189.624 19.1337C190.56 19.1337 191.431 19.2845 192.237 19.5861C193.049 19.8815 193.757 20.3278 194.36 20.9248C194.97 21.5219 195.444 22.2729 195.782 23.1777C196.121 24.0764 196.29 25.1289 196.29 26.3354V27.4156H184.315V24.9781H192.588C192.588 24.4118 192.465 23.9102 192.218 23.4731C191.972 23.0361 191.631 22.6945 191.194 22.4483C190.763 22.1959 190.261 22.0697 189.689 22.0697C189.092 22.0697 188.562 22.2082 188.101 22.4852C187.645 22.7561 187.288 23.1223 187.029 23.5839C186.771 24.0394 186.639 24.5472 186.632 25.1074V27.4248C186.632 28.1266 186.762 28.7329 187.02 29.2437C187.285 29.7546 187.657 30.1486 188.137 30.4256C188.618 30.7025 189.187 30.841 189.846 30.841C190.283 30.841 190.683 30.7795 191.046 30.6564C191.409 30.5333 191.72 30.3486 191.978 30.1024C192.237 29.8562 192.434 29.5546 192.569 29.1976L196.207 29.4376C196.022 30.3117 195.644 31.0749 195.071 31.7274C194.505 32.3737 193.773 32.8784 192.874 33.2416C191.981 33.5986 190.95 33.7771 189.781 33.7771Z" fill="white"/>
<path d="M198.857 33.5001V19.3183H202.67V21.7927H202.818C203.076 20.9125 203.51 20.2478 204.12 19.7984C204.729 19.3429 205.431 19.1152 206.225 19.1152C206.422 19.1152 206.634 19.1275 206.862 19.1521C207.09 19.1767 207.29 19.2106 207.462 19.2537V22.7437C207.277 22.6883 207.022 22.6391 206.696 22.596C206.369 22.5529 206.071 22.5314 205.8 22.5314C205.221 22.5314 204.704 22.6576 204.249 22.9099C203.8 23.1561 203.443 23.5008 203.178 23.944C202.919 24.3872 202.79 24.8981 202.79 25.4767V33.5001H198.857Z" fill="white"/>
</svg>
