<svg width="207" height="48" viewBox="0 0 207 48" fill="none" xmlns="http://www.w3.org/2000/svg">
<rect x="0.821777" y="0.189941" width="47.5287" height="47.5287" rx="15.8429" fill="#5F65F6"/>
<path d="M29.7846 24.3256C29.7846 23.224 29.4579 22.1472 28.8459 21.2312C28.2339 20.3153 27.364 19.6014 26.3462 19.1798C25.3285 18.7583 24.2086 18.648 23.1282 18.8629C22.0478 19.0778 21.0553 19.6083 20.2764 20.3872C19.4974 21.1662 18.967 22.1586 18.752 23.239C18.5371 24.3194 18.6474 25.4393 19.069 26.4571C19.4906 27.4748 20.2044 28.3447 21.1204 28.9567C22.0363 29.5687 23.1132 29.8954 24.2148 29.8954V24.3256H29.7846Z" fill="#5F65F6"/>
<path fill-rule="evenodd" clip-rule="evenodd" d="M35.7258 30.2669H30.156V35.8366H24.215C21.9383 35.8366 19.7128 35.1615 17.8199 33.8967C15.9269 32.6319 14.4515 30.8341 13.5803 28.7308C12.7091 26.6275 12.4811 24.313 12.9253 22.0801C13.3694 19.8473 14.4657 17.7962 16.0756 16.1864C17.6854 14.5766 19.7364 13.4803 21.9693 13.0361C24.2022 12.592 26.5166 12.8199 28.62 13.6912C30.7233 14.5624 32.521 16.0378 33.7859 17.9307C35.0507 19.8237 35.7258 22.0492 35.7258 24.3258V30.2669ZM24.215 29.8956C23.1134 29.8956 22.0365 29.5689 21.1206 28.9569C20.2046 28.3449 19.4907 27.475 19.0692 26.4573C18.7879 25.7782 18.6452 25.0537 18.6452 24.3258C18.6452 23.9627 18.6807 23.5988 18.7522 23.2392C18.9671 22.1588 19.4976 21.1663 20.2765 20.3874C21.0555 19.6084 22.0479 19.078 23.1283 18.8631C23.4879 18.7915 23.8519 18.756 24.215 18.756C24.9429 18.756 25.6674 18.8987 26.3464 19.18C27.3642 19.6016 28.234 20.3155 28.846 21.2314C29.4581 22.1473 29.7847 23.2242 29.7847 24.3258H24.215V29.8956Z" fill="white"/>
<path d="M79.0657 23.5044C79.0657 25.5462 78.6787 27.2832 77.9046 28.7155C77.1367 30.1478 76.0883 31.2418 74.7597 31.9976C73.4371 32.7473 71.9499 33.1221 70.2982 33.1221C68.6343 33.1221 67.1411 32.7442 65.8185 31.9885C64.4959 31.2327 63.4506 30.1387 62.6827 28.7064C61.9147 27.2741 61.5308 25.5401 61.5308 23.5044C61.5308 21.4626 61.9147 19.7256 62.6827 18.2933C63.4506 16.861 64.4959 15.77 65.8185 15.0204C67.1411 14.2646 68.6343 13.8867 70.2982 13.8867C71.9499 13.8867 73.4371 14.2646 74.7597 15.0204C76.0883 15.77 77.1367 16.861 77.9046 18.2933C78.6787 19.7256 79.0657 21.4626 79.0657 23.5044ZM75.0522 23.5044C75.0522 22.1818 74.8541 21.0665 74.458 20.1583C74.0679 19.2502 73.5163 18.5615 72.8032 18.0922C72.0901 17.6229 71.2551 17.3882 70.2982 17.3882C69.3413 17.3882 68.5063 17.6229 67.7932 18.0922C67.0801 18.5615 66.5255 19.2502 66.1293 20.1583C65.7393 21.0665 65.5442 22.1818 65.5442 23.5044C65.5442 24.827 65.7393 25.9424 66.1293 26.8505C66.5255 27.7586 67.0801 28.4473 67.7932 28.9166C68.5063 29.386 69.3413 29.6206 70.2982 29.6206C71.2551 29.6206 72.0901 29.386 72.8032 28.9166C73.5163 28.4473 74.0679 27.7586 74.458 26.8505C74.8541 25.9424 75.0522 24.827 75.0522 23.5044Z" fill="#5F65F6"/>
<path d="M85.8195 24.7478V32.8661H81.9249V18.8236H85.6367V21.3011H85.8013C86.1121 20.4844 86.6332 19.8384 87.3646 19.363C88.096 18.8815 88.9828 18.6407 90.025 18.6407C91.0002 18.6407 91.8504 18.854 92.5757 19.2807C93.301 19.7073 93.8648 20.3168 94.267 21.1091C94.6693 21.8954 94.8704 22.834 94.8704 23.925V32.8661H90.9758V24.6198C90.9819 23.7604 90.7625 23.09 90.3176 22.6085C89.8726 22.1209 89.2601 21.8771 88.48 21.8771C87.9558 21.8771 87.4926 21.9898 87.0903 22.2153C86.6942 22.4409 86.3833 22.77 86.1578 23.2027C85.9384 23.6294 85.8256 24.1444 85.8195 24.7478Z" fill="#5F65F6"/>
<path d="M104.34 33.1404C102.895 33.1404 101.652 32.8478 100.609 32.2627C99.5734 31.6715 98.7749 30.8365 98.2142 29.7577C97.6535 28.6729 97.3731 27.3899 97.3731 25.9088C97.3731 24.4644 97.6535 23.1966 98.2142 22.1056C98.7749 21.0147 99.5642 20.1644 100.582 19.5549C101.606 18.9455 102.807 18.6407 104.184 18.6407C105.111 18.6407 105.973 18.79 106.771 19.0887C107.576 19.3812 108.277 19.8231 108.874 20.4143C109.478 21.0055 109.947 21.7491 110.282 22.645C110.617 23.5349 110.785 24.5771 110.785 25.7717V26.8413H98.9273V24.4278H107.119C107.119 23.8671 106.997 23.3703 106.753 22.9376C106.509 22.5049 106.171 22.1666 105.738 21.9228C105.312 21.6729 104.815 21.548 104.248 21.548C103.657 21.548 103.133 21.6851 102.676 21.9594C102.225 22.2275 101.871 22.5902 101.615 23.0473C101.359 23.4983 101.228 24.0011 101.222 24.5558V26.8505C101.222 27.5453 101.35 28.1456 101.606 28.6515C101.868 29.1574 102.237 29.5475 102.712 29.8217C103.188 30.096 103.751 30.2331 104.404 30.2331C104.836 30.2331 105.232 30.1722 105.592 30.0503C105.952 29.9284 106.259 29.7455 106.515 29.5018C106.771 29.258 106.966 28.9593 107.101 28.6058L110.703 28.8435C110.52 29.709 110.145 30.4647 109.578 31.1108C109.017 31.7508 108.292 32.2505 107.402 32.6101C106.518 32.9636 105.498 33.1404 104.34 33.1404Z" fill="#5F65F6"/>
<path d="M111.379 17.4065V14.1427H126.756V17.4065H121.024V32.8661H117.111V17.4065H111.379Z" fill="#5F65F6"/>
<path d="M127.758 32.8661V18.8236H131.533V21.2737H131.68C131.936 20.4021 132.365 19.7439 132.969 19.299C133.572 18.8479 134.267 18.6224 135.053 18.6224C135.248 18.6224 135.458 18.6346 135.684 18.659C135.909 18.6834 136.107 18.7169 136.278 18.7596V22.2153C136.095 22.1605 135.842 22.1117 135.519 22.0691C135.196 22.0264 134.901 22.0051 134.633 22.0051C134.06 22.0051 133.548 22.13 133.097 22.3799C132.652 22.6237 132.298 22.965 132.036 23.4038C131.78 23.8427 131.652 24.3485 131.652 24.9215V32.8661H127.758Z" fill="#5F65F6"/>
<path d="M141.894 33.1312C140.998 33.1312 140.199 32.9758 139.499 32.665C138.798 32.3481 138.243 31.8818 137.835 31.2662C137.432 30.6445 137.231 29.8705 137.231 28.9441C137.231 28.1639 137.374 27.5087 137.661 26.9785C137.947 26.4482 138.337 26.0216 138.831 25.6986C139.325 25.3755 139.886 25.1317 140.513 24.9672C141.147 24.8026 141.812 24.6868 142.506 24.6198C143.323 24.5344 143.981 24.4552 144.481 24.3821C144.981 24.3028 145.343 24.187 145.569 24.0347C145.795 23.8823 145.907 23.6568 145.907 23.3581V23.3033C145.907 22.7243 145.724 22.2763 145.359 21.9594C144.999 21.6424 144.487 21.484 143.823 21.484C143.122 21.484 142.564 21.6394 142.15 21.9502C141.735 22.255 141.461 22.6389 141.327 23.1021L137.725 22.8096C137.908 21.9563 138.267 21.2188 138.804 20.5972C139.34 19.9694 140.032 19.4879 140.879 19.1527C141.732 18.8114 142.72 18.6407 143.841 18.6407C144.621 18.6407 145.368 18.7321 146.081 18.915C146.8 19.0978 147.437 19.3812 147.992 19.7652C148.552 20.1492 148.994 20.6429 149.317 21.2463C149.64 21.8436 149.802 22.5597 149.802 23.3947V32.8661H146.108V30.9188H145.999C145.773 31.3576 145.471 31.7447 145.094 32.0799C144.716 32.409 144.262 32.668 143.731 32.857C143.201 33.0398 142.589 33.1312 141.894 33.1312ZM143.009 30.4434C143.582 30.4434 144.088 30.3307 144.527 30.1051C144.966 29.8735 145.31 29.5627 145.56 29.1726C145.81 28.7826 145.935 28.3407 145.935 27.847V26.3568C145.813 26.436 145.645 26.5092 145.432 26.5762C145.225 26.6372 144.99 26.6951 144.728 26.7499C144.466 26.7987 144.204 26.8444 143.942 26.8871C143.68 26.9236 143.442 26.9571 143.229 26.9876C142.771 27.0547 142.372 27.1613 142.031 27.3076C141.69 27.4539 141.424 27.652 141.236 27.9019C141.047 28.1456 140.952 28.4504 140.952 28.8161C140.952 29.3463 141.144 29.7516 141.528 30.032C141.918 30.3063 142.412 30.4434 143.009 30.4434Z" fill="#5F65F6"/>
<path d="M159.168 33.1404C157.73 33.1404 156.493 32.8356 155.456 32.2262C154.426 31.6106 153.634 30.7573 153.079 29.6663C152.531 28.5753 152.257 27.3198 152.257 25.8997C152.257 24.4613 152.534 23.1997 153.089 22.1148C153.649 21.0238 154.445 20.1736 155.475 19.5641C156.505 18.9485 157.73 18.6407 159.15 18.6407C160.375 18.6407 161.448 18.8632 162.368 19.3081C163.288 19.753 164.017 20.3777 164.553 21.1823C165.089 21.9868 165.385 22.9315 165.44 24.0164H161.765C161.661 23.3155 161.387 22.7517 160.942 22.3251C160.503 21.8923 159.927 21.676 159.214 21.676C158.61 21.676 158.083 21.8405 157.632 22.1696C157.187 22.4927 156.84 22.965 156.59 23.5867C156.34 24.2084 156.215 24.9611 156.215 25.8448C156.215 26.7408 156.337 27.5026 156.581 28.1304C156.831 28.7582 157.181 29.2366 157.632 29.5657C158.083 29.8949 158.61 30.0594 159.214 30.0594C159.659 30.0594 160.058 29.968 160.412 29.7852C160.771 29.6023 161.067 29.3372 161.298 28.9898C161.536 28.6363 161.691 28.2127 161.765 27.719H165.44C165.379 28.7917 165.086 29.7364 164.562 30.5531C164.044 31.3637 163.328 31.9976 162.414 32.4547C161.499 32.9118 160.418 33.1404 159.168 33.1404Z" fill="#5F65F6"/>
<path d="M171.462 28.8252L171.471 24.1535H172.038L176.536 18.8236H181.007L174.964 25.8814H174.04L171.462 28.8252ZM167.933 32.8661V14.1427H171.828V32.8661H167.933ZM176.71 32.8661L172.578 26.7499L175.174 23.9981L181.272 32.8661H176.71Z" fill="#5F65F6"/>
<path d="M188.739 33.1404C187.294 33.1404 186.051 32.8478 185.009 32.2627C183.973 31.6715 183.174 30.8365 182.614 29.7577C182.053 28.6729 181.772 27.3899 181.772 25.9088C181.772 24.4644 182.053 23.1966 182.614 22.1056C183.174 21.0147 183.964 20.1644 184.981 19.5549C186.005 18.9455 187.206 18.6407 188.583 18.6407C189.51 18.6407 190.372 18.79 191.171 19.0887C191.975 19.3812 192.676 19.8231 193.273 20.4143C193.877 21.0055 194.346 21.7491 194.681 22.645C195.017 23.5349 195.184 24.5771 195.184 25.7717V26.8413H183.327V24.4278H191.518C191.518 23.8671 191.396 23.3703 191.152 22.9376C190.909 22.5049 190.57 22.1666 190.138 21.9228C189.711 21.6729 189.214 21.548 188.647 21.548C188.056 21.548 187.532 21.6851 187.075 21.9594C186.624 22.2275 186.27 22.5902 186.014 23.0473C185.759 23.4983 185.627 24.0011 185.621 24.5558V26.8505C185.621 27.5453 185.749 28.1456 186.005 28.6515C186.267 29.1574 186.636 29.5475 187.112 29.8217C187.587 30.096 188.151 30.2331 188.803 30.2331C189.236 30.2331 189.632 30.1722 189.991 30.0503C190.351 29.9284 190.659 29.7455 190.915 29.5018C191.171 29.258 191.366 28.9593 191.5 28.6058L195.102 28.8435C194.919 29.709 194.544 30.4647 193.977 31.1108C193.417 31.7508 192.691 32.2505 191.802 32.6101C190.918 32.9636 189.897 33.1404 188.739 33.1404Z" fill="#5F65F6"/>
<path d="M197.726 32.8661V18.8236H201.502V21.2737H201.648C201.904 20.4021 202.333 19.7439 202.937 19.299C203.54 18.8479 204.235 18.6224 205.021 18.6224C205.216 18.6224 205.427 18.6346 205.652 18.659C205.878 18.6834 206.076 18.7169 206.246 18.7596V22.2153C206.064 22.1605 205.811 22.1117 205.488 22.0691C205.165 22.0264 204.869 22.0051 204.601 22.0051C204.028 22.0051 203.516 22.13 203.065 22.3799C202.62 22.6237 202.266 22.965 202.004 23.4038C201.748 23.8427 201.62 24.3485 201.62 24.9215V32.8661H197.726Z" fill="#5F65F6"/>
</svg>
