<svg width="266" height="269" viewBox="0 0 266 269" fill="none" xmlns="http://www.w3.org/2000/svg">
<g opacity="0.1">
<path fill-rule="evenodd" clip-rule="evenodd" d="M307 194.726H232.726V269H153.5C123.141 269 93.463 259.997 68.22 243.131C42.9771 226.264 23.3026 202.29 11.6846 174.242C0.0665078 146.193 -2.9733 115.33 2.94953 85.5537C8.87236 55.7776 23.4918 28.4265 44.9592 6.95917C66.4265 -14.5082 93.7776 -29.1276 123.554 -35.0505C153.33 -40.9733 184.193 -37.9335 212.242 -26.3154C240.29 -14.6974 264.264 4.97709 281.131 30.22C297.997 55.463 307 85.1406 307 115.5V194.726ZM153.5 189.774C138.81 189.774 124.45 185.418 112.236 177.257C100.021 169.095 90.5013 157.495 84.8796 143.924C81.1289 134.868 79.2259 125.207 79.2258 115.5C79.2258 110.658 79.6992 105.805 80.653 101.01C83.5189 86.6021 90.5928 73.3677 100.98 62.9803C111.368 52.5928 124.602 45.5189 139.01 42.653C143.805 41.6992 148.658 41.2258 153.5 41.2258C163.207 41.2259 172.868 43.1289 181.924 46.8796C195.495 52.5013 207.095 62.0212 215.257 74.2355C223.418 86.4498 227.774 100.81 227.774 115.5H153.5V189.774Z" fill="#5F65F6"/>
<path fill-rule="evenodd" clip-rule="evenodd" d="M307 194.726H232.726V269H153.5C123.141 269 93.463 259.997 68.22 243.131C42.9771 226.264 23.3026 202.29 11.6846 174.242C0.0665078 146.193 -2.9733 115.33 2.94953 85.5537C8.87236 55.7776 23.4918 28.4265 44.9592 6.95917C66.4265 -14.5082 93.7776 -29.1276 123.554 -35.0505C153.33 -40.9733 184.193 -37.9335 212.242 -26.3154C240.29 -14.6974 264.264 4.97709 281.131 30.22C297.997 55.463 307 85.1406 307 115.5V194.726ZM153.5 189.774C138.81 189.774 124.45 185.418 112.236 177.257C100.021 169.095 90.5013 157.495 84.8796 143.924C81.1289 134.868 79.2259 125.207 79.2258 115.5C79.2258 110.658 79.6992 105.805 80.653 101.01C83.5189 86.6021 90.5928 73.3677 100.98 62.9803C111.368 52.5928 124.602 45.5189 139.01 42.653C143.805 41.6992 148.658 41.2258 153.5 41.2258C163.207 41.2259 172.868 43.1289 181.924 46.8796C195.495 52.5013 207.095 62.0212 215.257 74.2355C223.418 86.4498 227.774 100.81 227.774 115.5H153.5V189.774Z" fill="white" fill-opacity="0.9"/>
</g>
</svg>
