<svg width="168" height="50" viewBox="0 0 168 50" fill="none" xmlns="http://www.w3.org/2000/svg">
<path d="M161.011 49.5049H6.9829C3.59428 49.5049 0.821777 46.7211 0.821777 43.3188V6.20225C0.821777 2.7999 3.59428 0.016162 6.9829 0.016162H161.011C164.4 0.016162 167.172 2.7999 167.172 6.20225V43.3188C167.172 46.7211 164.4 49.5049 161.011 49.5049Z" fill="black"/>
<path d="M161.011 0.016162H6.9829C3.59428 0.016162 0.821777 2.7999 0.821777 6.20225V43.3188C0.821777 46.7211 3.59428 49.5049 6.9829 49.5049H161.011C164.4 49.5049 167.172 46.7211 167.172 43.3188V6.20225C167.172 2.7999 164.4 0.016162 161.011 0.016162ZM161.011 1.00594C163.865 1.00594 166.186 3.33735 166.186 6.20225V43.3188C166.186 46.1842 163.865 48.5156 161.011 48.5156H6.9829C4.12956 48.5156 1.80756 46.1842 1.80756 43.3188V6.20225C1.80756 3.33735 4.12956 1.00594 6.9829 1.00594H161.011Z" fill="#A6A6A6"/>
<path d="M59.2518 12.6893C59.2518 13.7259 58.9461 14.5513 58.3338 15.1671C57.6383 15.8993 56.7319 16.2656 55.6176 16.2656C54.5505 16.2656 53.6432 15.8945 52.8971 15.1511C52.1496 14.4083 51.7766 13.4872 51.7766 12.3882C51.7766 11.2887 52.1496 10.3681 52.8971 9.62473C53.6432 8.88191 54.5505 8.51025 55.6176 8.51025C56.1471 8.51025 56.654 8.61417 57.1353 8.82153C57.6166 9.02938 58.0027 9.30528 58.2915 9.65084L57.6416 10.3037C57.1522 9.71654 56.4783 9.42319 55.6176 9.42319C54.8393 9.42319 54.1664 9.69773 53.5985 10.2472C53.0304 10.7972 52.7465 11.5105 52.7465 12.3882C52.7465 13.2659 53.0304 13.9791 53.5985 14.5292C54.1664 15.0786 54.8393 15.3532 55.6176 15.3532C56.4432 15.3532 57.1315 15.0772 57.6825 14.5244C58.0402 14.1642 58.2471 13.6636 58.3025 13.0208H55.6176V12.1291H59.2003C59.2349 12.323 59.2518 12.5091 59.2518 12.6893Z" fill="white"/>
<path d="M59.252 12.6896H59.1287C59.1277 13.7025 58.8331 14.4893 58.2468 15.0799L58.2455 15.0809L58.245 15.0819C57.5716 15.7889 56.7061 16.1407 55.6178 16.1422C54.5791 16.1407 53.7098 15.785 52.9839 15.064C52.2596 14.3414 51.9014 13.4594 51.9 12.3885C51.9014 11.3171 52.2596 10.4355 52.9839 9.71349C53.7098 8.99195 54.5791 8.63575 55.6178 8.63427C56.1313 8.63427 56.6204 8.73485 57.0868 8.9354C57.5537 9.13744 57.9225 9.40221 58.1973 9.73093L58.2917 9.65114L58.2046 9.56366L57.5547 10.217L57.6418 10.304L57.7367 10.2248C57.2245 9.60857 56.5054 9.29791 55.6178 9.29977C54.8106 9.29878 54.1006 9.58828 53.5134 10.1586C52.9204 10.7309 52.6225 11.4842 52.6234 12.3885C52.6225 13.2928 52.9204 14.0461 53.5134 14.6183C54.1006 15.1887 54.8106 15.4782 55.6178 15.4772C56.4707 15.4787 57.1976 15.1882 57.7698 14.6121C58.1521 14.2274 58.3687 13.6944 58.4255 13.0317L58.437 12.8974H55.741V12.2531H59.2004V12.1294L59.0791 12.1512C59.1128 12.3387 59.1287 12.517 59.1287 12.6896H59.252H59.3752C59.3752 12.5016 59.3578 12.3083 59.3217 12.1073L59.3035 12.0057H55.4945V13.0211V13.1448H58.3026V13.0211L58.1799 13.0104C58.1256 13.633 57.9282 14.1018 57.5956 14.4372C57.0661 14.9668 56.4164 15.2283 55.6178 15.2298C54.8683 15.2288 54.2325 14.9697 53.6843 14.4405C53.1414 13.9132 52.8712 13.2401 52.8699 12.3885C52.8712 11.5369 53.1414 10.8637 53.6843 10.3364C54.2325 9.80727 54.8683 9.5482 55.6178 9.54721C56.451 9.54919 57.0802 9.82558 57.5475 10.3838L57.6342 10.4872L58.3788 9.73861L58.4586 9.65843L58.3859 9.57183C58.0832 9.20945 57.6799 8.92179 57.184 8.70825C56.6873 8.49409 56.1631 8.38682 55.6178 8.38682C54.5223 8.38583 53.5769 8.77246 52.8101 9.53756C52.0405 10.3012 51.6526 11.261 51.6536 12.3885C51.6526 13.5155 52.0405 14.4758 52.8106 15.2399C53.5769 16.0045 54.5223 16.3906 55.6178 16.3896C56.7585 16.3906 57.7049 16.0102 58.423 15.2529L58.3339 15.1674L58.4211 15.2549C59.0594 14.6145 59.376 13.7494 59.3752 12.6896H59.252Z" fill="white"/>
<path d="M64.9316 9.58825H61.5647V11.9419H64.601V12.834H61.5647V15.1877H64.9316V16.0996H60.6155V8.6763H64.9316V9.58825Z" fill="white"/>
<path d="M64.9315 9.58855V9.46483H61.4414V12.066H64.4777V12.7102L61.4414 12.7106V15.3117H64.8083V15.9762H60.7386V8.80032H64.8083V9.58855H64.9315V9.46483V9.58855H65.0548V8.6766V8.55287H60.4922V16.2236H65.0548V15.188V15.0642H61.6878V12.958H64.7242V11.9422V11.8185H61.6878V9.71227H65.0548V9.58855H64.9315Z" fill="white"/>
<path d="M68.938 16.0996H67.9873V9.58825H65.9224V8.6763H71.0029V9.58825H68.938V16.0996Z" fill="white"/>
<path d="M68.9379 16.0999V15.9762H68.1105V9.46483H66.0455V8.80032H70.8797V9.46483H68.8147V16.0999H68.9379V15.9762V16.0999H69.0611V9.71227H71.1261V8.6766V8.55287H65.7991V9.58855V9.71227H67.864V16.2236H68.9379H69.0611V16.0999H68.9379Z" fill="white"/>
<path d="M74.6787 16.0996V8.6763H75.6284V16.0996H74.6787Z" fill="white"/>
<path d="M74.6786 16.0999H74.8019V8.80032H75.5051V15.9762H74.6786V16.0999H74.8019H74.6786V16.2236H75.6283H75.7515V8.55287H74.6786H74.5554V16.2236H74.6786V16.0999Z" fill="white"/>
<path d="M79.8426 16.0996H78.892V9.58825H76.8271V8.6763H81.9076V9.58825H79.8426V16.0996Z" fill="white"/>
<path d="M79.8426 16.0999V15.9762H79.0151V9.46483H76.9503V8.80032H81.7843V9.46483H79.7194V16.0999H79.8426V15.9762V16.0999H79.9658V9.71227H82.0308V8.6766V8.55287H76.7039V9.58855V9.71227H78.7687V16.2236H79.8426H79.9658V16.0999H79.8426Z" fill="white"/>
<path d="M86.8054 14.519C87.3527 15.0753 88.0223 15.3532 88.8141 15.3532C89.6059 15.3532 90.2759 15.0753 90.8222 14.519C91.37 13.9628 91.6444 13.2518 91.6444 12.3882C91.6444 11.5246 91.37 10.8136 90.8222 10.2573C90.2759 9.70107 89.6059 9.42319 88.8141 9.42319C88.0223 9.42319 87.3527 9.70107 86.8054 10.2573C86.2591 10.8136 85.9848 11.5246 85.9848 12.3882C85.9848 13.2518 86.2591 13.9628 86.8054 14.519ZM91.525 15.1405C90.7981 15.891 89.8941 16.2656 88.8141 16.2656C87.7329 16.2656 86.8295 15.891 86.1042 15.1405C85.3768 14.3909 85.0149 13.4732 85.0149 12.3882C85.0149 11.3031 85.3768 10.3854 86.1042 9.63587C86.8295 8.88525 87.7329 8.51025 88.8141 8.51025C89.8885 8.51025 90.79 8.88723 91.5202 9.64069C92.2494 10.3942 92.6143 11.3099 92.6143 12.3882C92.6143 13.4732 92.2503 14.3909 91.525 15.1405Z" fill="white"/>
<path d="M86.8056 14.5193L86.718 14.6063C87.2856 15.1848 87.9936 15.4787 88.8143 15.4772C89.6344 15.4787 90.3435 15.1848 90.91 14.6063C91.4813 14.0273 91.7686 13.2782 91.7678 12.3885C91.7686 11.4988 91.4813 10.7497 90.91 10.1706C90.3435 9.59212 89.6344 9.29828 88.8143 9.29977C87.9936 9.29828 87.2856 9.59212 86.718 10.1706C86.1481 10.7497 85.8603 11.4988 85.8617 12.3885C85.8603 13.2782 86.1481 14.0273 86.718 14.6063L86.8056 14.5193L86.8932 14.4324C86.3705 13.8983 86.1092 13.2265 86.1082 12.3885C86.1092 11.5505 86.3705 10.8787 86.8932 10.3446C87.4207 9.81062 88.0508 9.5487 88.8143 9.54721C89.5771 9.5487 90.2086 9.81062 90.7348 10.3446C91.2585 10.8787 91.5199 11.5505 91.5209 12.3885C91.5199 13.2265 91.2585 13.8983 90.7348 14.4324C90.2086 14.9663 89.5771 15.2283 88.8143 15.2298C88.0508 15.2283 87.4207 14.9663 86.8932 14.4324L86.8056 14.5193ZM91.5252 15.1408L91.4371 15.0548C90.7305 15.7817 89.8665 16.1407 88.8143 16.1422C87.7616 16.1407 86.8975 15.7817 86.1923 15.0548L86.189 15.051L86.1923 15.0548C85.4873 14.3255 85.1393 13.4459 85.1383 12.3885C85.1393 11.331 85.4873 10.4515 86.1923 9.72215C86.8975 8.99529 87.7616 8.63575 88.8143 8.63427C89.8597 8.63575 90.7218 8.99677 91.4323 9.72747C92.1398 10.4602 92.4897 11.3383 92.4912 12.3885C92.4897 13.4459 92.1408 14.3255 91.4371 15.0548L91.5252 15.1408L91.6138 15.2268C92.3607 14.4565 92.7385 13.501 92.7377 12.3885C92.7385 11.2823 92.3593 10.3288 91.6088 9.555C90.858 8.77828 89.9175 8.38546 88.8143 8.38682C87.7053 8.38546 86.7619 8.77642 86.0158 9.55018V9.54968C85.2673 10.3205 84.8909 11.276 84.8918 12.3885C84.8909 13.501 85.2673 14.4565 86.0158 15.2273L86.0191 15.2307L86.0158 15.2268C86.7619 16.0005 87.7053 16.3906 88.8143 16.3896C89.9228 16.3906 90.8662 16.0005 91.6138 15.2268L91.5252 15.1408Z" fill="white"/>
<path d="M93.9475 16.0996V8.6763H95.1037L98.6969 14.4511H98.7378L98.6969 13.0205V8.6763H99.6475V16.0996H98.656L94.8967 10.0449H94.8558L94.8967 11.476V16.0996H93.9475Z" fill="white"/>
<path d="M93.9477 16.0999H94.0709V8.80032H95.0355L98.6286 14.5752H98.7379H98.8645L98.8203 13.019V8.80032H99.5245V15.9762H98.7245L94.9653 9.92149H94.856H94.7294L94.7736 11.4783V15.9762H93.9477V16.0999H94.0709H93.9477V16.2236H94.8969H95.0201V11.4743L94.9792 10.0419L94.856 10.0452V10.1689H94.8969V10.0452L94.7924 10.111L98.5877 16.2236H99.6477H99.7709V8.55287H98.697H98.5738V13.0223L98.6147 14.4548L98.7379 14.4514V14.3277H98.697V14.4514L98.8015 14.3857L95.1721 8.55287H93.9477H93.8245V16.2236H93.9477V16.0999Z" fill="white"/>
<path d="M132.591 37.1326H134.89V21.6659H132.591V37.1326ZM153.301 27.2374L150.665 33.943H150.586L147.851 27.2374H145.374L149.476 36.6097L147.137 41.8229H149.537L155.858 27.2374H153.301ZM140.262 35.3759C139.507 35.3759 138.458 34.9979 138.458 34.0624C138.458 32.8686 139.766 32.4109 140.895 32.4109C141.907 32.4109 142.381 32.6298 142.996 32.9286C142.817 34.361 141.589 35.3759 140.262 35.3759ZM140.539 26.899C138.874 26.899 137.15 27.6355 136.437 29.2671L138.477 30.1226C138.914 29.2671 139.726 28.9883 140.578 28.9883C141.767 28.9883 142.976 29.705 142.996 30.9785V31.1374C142.579 30.8987 141.688 30.5406 140.598 30.5406C138.398 30.5406 136.158 31.7541 136.158 34.0226C136.158 36.0921 137.962 37.4255 139.983 37.4255C141.53 37.4255 142.381 36.7291 142.917 35.9134H142.996V37.107H145.215V31.177C145.215 28.4315 143.175 26.899 140.539 26.899ZM126.329 29.1202H123.058V23.8186H126.329C128.048 23.8186 129.024 25.2475 129.024 26.4693C129.024 27.6679 128.048 29.1202 126.329 29.1202ZM126.27 21.6659H120.76V37.1326H123.058V31.2728H126.27C128.818 31.2728 131.323 29.4203 131.323 26.4693C131.323 23.5184 128.818 21.6659 126.27 21.6659ZM96.2268 35.3788C94.6383 35.3788 93.3084 34.0434 93.3084 32.2094C93.3084 30.356 94.6383 29.0004 96.2268 29.0004C97.7951 29.0004 99.0258 30.356 99.0258 32.2094C99.0258 34.0434 97.7951 35.3788 96.2268 35.3788ZM98.867 28.1034H98.7875C98.2716 27.4857 97.2785 26.9276 96.028 26.9276C93.4076 26.9276 91.0057 29.2395 91.0057 32.2094C91.0057 35.1594 93.4076 37.4516 96.028 37.4516C97.2785 37.4516 98.2716 36.8934 98.7875 36.2559H98.867V37.0132C98.867 39.0267 97.7951 40.1029 96.068 40.1029C94.6586 40.1029 93.785 39.0861 93.4273 38.2292L91.4226 39.0663C91.9983 40.4615 93.527 42.1758 96.068 42.1758C98.7678 42.1758 101.051 40.5809 101.051 36.6943V27.2465H98.867V28.1034ZM102.639 37.1326H104.941V21.6654H102.639V37.1326ZM108.336 32.0301C108.277 29.9969 109.904 28.9607 111.076 28.9607C111.989 28.9607 112.763 29.4188 113.021 30.0771L108.336 32.0301ZM115.483 30.2762C115.047 29.0999 113.716 26.9276 110.996 26.9276C108.296 26.9276 106.053 29.0603 106.053 32.1896C106.053 35.1396 108.277 37.4516 111.254 37.4516C113.657 37.4516 115.047 35.9766 115.622 35.1197L113.835 33.9235C113.24 34.8007 112.426 35.3788 111.254 35.3788C110.083 35.3788 109.249 34.8404 108.713 33.7843L115.721 30.874L115.483 30.2762ZM59.6529 28.5421V30.7744H64.973C64.8142 32.0301 64.3973 32.9469 63.762 33.5848C62.988 34.3624 61.777 35.2193 59.6529 35.2193C56.3773 35.2193 53.8166 32.5684 53.8166 29.2796C53.8166 25.9909 56.3773 23.3396 59.6529 23.3396C61.4198 23.3396 62.7098 24.0374 63.6628 24.9344L65.2311 23.3599C63.9011 22.084 62.1341 21.1073 59.6529 21.1073C55.1662 21.1073 51.3945 24.7749 51.3945 29.2796C51.3945 33.7843 55.1662 37.4516 59.6529 37.4516C62.075 37.4516 63.9011 36.6547 65.3303 35.1594C66.7993 33.6844 67.2561 31.6115 67.2561 29.9375C67.2561 29.4188 67.2165 28.9409 67.1367 28.5421H59.6529ZM73.3046 35.3788C71.7161 35.3788 70.3463 34.0632 70.3463 32.1896C70.3463 30.296 71.7161 29.0004 73.3046 29.0004C74.8924 29.0004 76.2623 30.296 76.2623 32.1896C76.2623 34.0632 74.8924 35.3788 73.3046 35.3788ZM73.3046 26.9276C70.4059 26.9276 68.0435 29.14 68.0435 32.1896C68.0435 35.2193 70.4059 37.4516 73.3046 37.4516C76.2027 37.4516 78.5651 35.2193 78.5651 32.1896C78.5651 29.14 76.2027 26.9276 73.3046 26.9276ZM84.7805 35.3788C83.1927 35.3788 81.8227 34.0632 81.8227 32.1896C81.8227 30.296 83.1927 29.0004 84.7805 29.0004C86.3685 29.0004 87.7384 30.296 87.7384 32.1896C87.7384 34.0632 86.3685 35.3788 84.7805 35.3788ZM84.7805 26.9276C81.882 26.9276 79.5201 29.14 79.5201 32.1896C79.5201 35.2193 81.882 37.4516 84.7805 37.4516C87.6787 37.4516 90.0412 35.2193 90.0412 32.1896C90.0412 29.14 87.6787 26.9276 84.7805 26.9276Z" fill="white"/>
<path d="M13.7722 40.0889L13.6806 40.0009C13.322 39.62 13.1104 39.0284 13.1104 38.2625V38.4427V11.0804C13.1104 11.078 13.1104 11.0761 13.1104 11.0741C13.1104 11.0765 13.1104 11.0784 13.1104 11.0809V11.2617C13.1104 10.4322 13.3572 9.80745 13.7707 9.43283L29.0377 24.7613L13.7722 40.0889ZM13.1104 11.0726C13.1104 11.0045 13.1122 10.9383 13.1157 10.8731C13.1122 10.9378 13.1104 11.0045 13.1104 11.0726ZM13.1157 10.8701C13.1157 10.8692 13.1156 10.8682 13.116 10.8673C13.1156 10.8682 13.1157 10.8692 13.1157 10.8701ZM13.116 10.8614C13.116 10.8609 13.116 10.8605 13.116 10.86C13.116 10.8605 13.116 10.8609 13.116 10.8614Z" fill="url(#paint0_linear_1565_34588)"/>
<path d="M34.1261 30.0542L34.2421 29.988L40.2713 26.5484C40.8461 26.2203 41.2292 25.8225 41.4203 25.4016C41.2297 25.8225 40.8465 26.2208 40.2713 26.5489L34.2421 29.9885L34.1261 30.0542ZM34.1275 29.8729L29.0378 24.7617L34.1271 19.6514L40.2713 23.1562C41.0515 23.6014 41.4896 24.1751 41.5628 24.7613C41.5628 24.7617 41.5628 24.7627 41.5628 24.7636C41.4896 25.3484 41.0515 25.9226 40.2713 26.3677L34.1275 29.8729Z" fill="url(#paint1_linear_1565_34588)"/>
<path d="M14.8606 40.6729C14.4341 40.6729 14.062 40.5337 13.7718 40.2708L13.7723 40.2703C14.0625 40.5332 14.4351 40.6729 14.8616 40.6729C14.8985 40.6729 14.9361 40.6719 14.9742 40.67C14.9356 40.6719 14.8975 40.6729 14.8606 40.6729ZM14.8611 40.4916C14.4346 40.4921 14.0625 40.3524 13.7723 40.0895V40.0891L29.0378 24.7616L34.1275 29.8728L16.2415 40.0765C15.7467 40.3582 15.2778 40.4916 14.8611 40.4916ZM13.768 40.2674C13.741 40.2428 13.7145 40.2167 13.6885 40.1896L13.768 40.2674Z" fill="url(#paint2_linear_1565_34588)"/>
<path d="M29.0378 24.7612L13.7708 9.43272C14.0609 9.17031 14.4326 9.03112 14.8586 9.03112C15.2764 9.03112 15.7456 9.16499 16.2415 9.4472L34.127 19.6509L29.0378 24.7612ZM34.2421 19.5355L16.2415 9.26656C15.7456 8.98423 15.2764 8.85036 14.8586 8.85036C14.8566 8.85036 14.8552 8.85036 14.8533 8.85036C14.8557 8.85036 14.8576 8.85036 14.8605 8.85036C15.2774 8.85036 15.7461 8.98373 16.2415 9.26607L34.2421 19.5355Z" fill="url(#paint3_linear_1565_34588)"/>
<path d="M14.9741 40.6694C15.3615 40.6472 15.7905 40.5133 16.2415 40.2567L34.126 30.0535L16.2415 40.2567C15.7908 40.5138 15.3615 40.6472 14.9741 40.6694ZM13.7717 40.2702L13.7679 40.2668C13.7693 40.2678 13.7707 40.2692 13.7717 40.2702ZM13.6884 40.189L13.6807 40.1814V40.1809C13.6836 40.1837 13.686 40.1865 13.6884 40.189Z" fill="black"/>
<path d="M34.126 30.0542L34.2432 29.9873L34.126 30.0542Z" fill="url(#paint4_linear_1565_34588)"/>
<path d="M14.8613 40.6729C14.4348 40.6729 14.0622 40.5332 13.772 40.2703L13.7715 40.2708C13.7705 40.2698 13.769 40.2684 13.7677 40.2674L13.6882 40.1896C13.6857 40.1871 13.6834 40.1843 13.6804 40.1814L13.772 40.0895C14.0622 40.3524 14.4343 40.4921 14.8608 40.4916C15.2775 40.4916 15.7464 40.3582 16.2412 40.0765L34.1272 29.8728L34.2418 29.9879L34.1257 30.054L16.2412 40.2573C15.7902 40.5139 15.3613 40.6477 14.9739 40.67C14.9358 40.6719 14.8982 40.6729 14.8613 40.6729Z" fill="url(#paint5_linear_1565_34588)"/>
<path d="M13.6806 40.1816C13.322 39.8007 13.1104 39.2092 13.1104 38.4432V38.4427C13.1104 39.2092 13.322 39.8002 13.6806 40.1811V40.1816Z" fill="black"/>
<path d="M13.6806 40.1816C13.322 39.8007 13.1104 39.2097 13.1104 38.4432V38.263C13.1104 39.0289 13.322 39.6204 13.6806 40.0014L13.7722 40.0893L13.6806 40.1816Z" fill="url(#paint6_linear_1565_34588)"/>
<path d="M13.6804 40.1816L13.7729 40.0884V40.0888L13.6804 40.1816Z" fill="url(#paint7_linear_1565_34588)"/>
<path d="M41.4202 25.4014C41.5149 25.1925 41.5626 24.978 41.5626 24.7633C41.5626 24.763 41.5626 24.7625 41.5626 24.7625C41.5626 24.9775 41.5149 25.192 41.4202 25.4014Z" fill="black"/>
<path d="M34.242 29.9883L34.1274 29.8732L40.2712 26.3679C41.0514 25.9229 41.4895 25.3487 41.5627 24.7639C41.5627 24.9785 41.515 25.1931 41.4202 25.4019C41.2291 25.8228 40.846 26.2206 40.2712 26.5487L34.242 29.9883Z" fill="url(#paint8_linear_1565_34588)"/>
<path d="M41.5628 24.7617V24.7612C41.5623 24.114 41.1316 23.467 40.2713 22.9759L34.2422 19.5363H34.2417L34.2422 19.536L40.2713 22.9754C41.1325 23.4665 41.5638 24.1145 41.5628 24.7617Z" fill="#404040"/>
<path d="M41.5629 24.7607C41.4897 24.1745 41.0517 23.6009 40.2714 23.1557L34.1272 19.6509L34.2418 19.5359H34.2423L40.2714 22.9754C41.1317 23.4665 41.5624 24.1136 41.5629 24.7607Z" fill="url(#paint9_linear_1565_34588)"/>
<path d="M13.1104 11.0747C13.1104 11.0742 13.1104 11.0737 13.1104 11.0732C13.1104 11.0737 13.1104 11.0742 13.1104 11.0747ZM13.1157 10.8737C13.1157 10.8727 13.1157 10.8717 13.1157 10.8707C13.1157 10.8717 13.1157 10.8727 13.1157 10.8737ZM13.116 10.8678C13.116 10.8659 13.116 10.864 13.116 10.862C13.116 10.864 13.116 10.8659 13.116 10.8678ZM13.116 10.8605C13.1874 9.58955 13.8757 8.85538 14.8494 8.85105C14.4272 8.85352 14.0595 8.99271 13.7717 9.25315V9.25265L13.7682 9.25611C13.7379 9.28358 13.7091 9.31266 13.6806 9.3426C13.3572 9.68617 13.1531 10.2009 13.116 10.8605Z" fill="#404040"/>
<path d="M13.1104 11.2612V11.0805C13.1104 11.078 13.1104 11.076 13.1104 11.0737C13.1104 11.0732 13.1104 11.0727 13.1104 11.0722C13.1104 11.004 13.1122 10.9373 13.1157 10.8726C13.1157 10.8716 13.1157 10.8706 13.1157 10.8697C13.1157 10.8688 13.1156 10.8678 13.116 10.8668C13.116 10.8648 13.116 10.863 13.116 10.861C13.116 10.8605 13.116 10.86 13.116 10.8595C13.1531 10.1998 13.3572 9.68514 13.6806 9.34156L13.7707 9.43238C13.3572 9.80701 13.1104 10.4318 13.1104 11.2612ZM13.7682 9.25508L13.7717 9.25162C13.7707 9.2531 13.7692 9.25409 13.7682 9.25508Z" fill="url(#paint10_linear_1565_34588)"/>
<path d="M34.1267 19.6514L16.2412 9.44766C15.7454 9.16545 15.2762 9.03158 14.8583 9.03158C14.4323 9.03158 14.0607 9.17076 13.7705 9.43318L13.6804 9.34237C13.7089 9.31243 13.7377 9.28335 13.768 9.25588C13.769 9.25489 13.7705 9.25391 13.7715 9.25292C14.0593 8.99248 14.427 8.8533 14.8492 8.85082C14.8502 8.85082 14.8515 8.85082 14.853 8.85082C14.855 8.85082 14.8563 8.85082 14.8583 8.85082C15.2762 8.85082 15.7454 8.98468 16.2412 9.26702L34.2418 19.5359L34.2413 19.5363L34.1267 19.6514Z" fill="url(#paint11_linear_1565_34588)"/>
<defs>
<linearGradient id="paint0_linear_1565_34588" x1="27.684" y1="10.7918" x2="6.92055" y2="31.4714" gradientUnits="userSpaceOnUse">
<stop stop-color="#00A0FF"/>
<stop offset="0.00657445" stop-color="#00A1FF"/>
<stop offset="0.2601" stop-color="#00BEFF"/>
<stop offset="0.5122" stop-color="#00D2FF"/>
<stop offset="0.7604" stop-color="#00DFFF"/>
<stop offset="1" stop-color="#00E3FF"/>
</linearGradient>
<linearGradient id="paint1_linear_1565_34588" x1="42.5134" y1="24.7625" x2="12.6973" y2="24.7625" gradientUnits="userSpaceOnUse">
<stop stop-color="#FFE000"/>
<stop offset="0.4087" stop-color="#FFBD00"/>
<stop offset="0.7754" stop-color="#FFA500"/>
<stop offset="1" stop-color="#FF9C00"/>
</linearGradient>
<linearGradient id="paint2_linear_1565_34588" x1="31.4143" y1="27.6014" x2="3.2575" y2="55.6445" gradientUnits="userSpaceOnUse">
<stop stop-color="#FF3A44"/>
<stop offset="1" stop-color="#C31162"/>
</linearGradient>
<linearGradient id="paint3_linear_1565_34588" x1="9.81371" y1="0.233881" x2="22.3868" y2="12.7563" gradientUnits="userSpaceOnUse">
<stop stop-color="#32A071"/>
<stop offset="0.0685" stop-color="#2DA771"/>
<stop offset="0.4762" stop-color="#15CF74"/>
<stop offset="0.8009" stop-color="#06E775"/>
<stop offset="1" stop-color="#00F076"/>
</linearGradient>
<linearGradient id="paint4_linear_1565_34588" x1="42.5966" y1="24.7098" x2="12.4844" y2="24.7098" gradientUnits="userSpaceOnUse">
<stop stop-color="#CCB300"/>
<stop offset="0.4087" stop-color="#CC9700"/>
<stop offset="0.7754" stop-color="#CC8400"/>
<stop offset="1" stop-color="#CC7D00"/>
</linearGradient>
<linearGradient id="paint5_linear_1565_34588" x1="31.414" y1="27.6014" x2="3.2572" y2="55.6445" gradientUnits="userSpaceOnUse">
<stop stop-color="#CC2E36"/>
<stop offset="1" stop-color="#9C0E4E"/>
</linearGradient>
<linearGradient id="paint6_linear_1565_34588" x1="27.684" y1="10.7923" x2="6.92055" y2="31.4719" gradientUnits="userSpaceOnUse">
<stop stop-color="#008DE0"/>
<stop offset="0.00657445" stop-color="#008DE0"/>
<stop offset="0.2601" stop-color="#00A7E0"/>
<stop offset="0.5122" stop-color="#00B8E0"/>
<stop offset="0.7604" stop-color="#00C4E0"/>
<stop offset="1" stop-color="#00C7E0"/>
</linearGradient>
<linearGradient id="paint7_linear_1565_34588" x1="31.59" y1="27.4765" x2="3.15336" y2="55.798" gradientUnits="userSpaceOnUse">
<stop stop-color="#E0333C"/>
<stop offset="1" stop-color="#AB0F56"/>
</linearGradient>
<linearGradient id="paint8_linear_1565_34588" x1="42.5133" y1="24.7628" x2="12.6972" y2="24.7628" gradientUnits="userSpaceOnUse">
<stop stop-color="#E0C500"/>
<stop offset="0.4087" stop-color="#E0A600"/>
<stop offset="0.7754" stop-color="#E09100"/>
<stop offset="1" stop-color="#E08900"/>
</linearGradient>
<linearGradient id="paint9_linear_1565_34588" x1="42.5136" y1="24.762" x2="12.6975" y2="24.762" gradientUnits="userSpaceOnUse">
<stop stop-color="#FFE840"/>
<stop offset="0.4087" stop-color="#FFCE40"/>
<stop offset="0.7754" stop-color="#FFBC40"/>
<stop offset="1" stop-color="#FFB540"/>
</linearGradient>
<linearGradient id="paint10_linear_1565_34588" x1="27.684" y1="10.7913" x2="6.92058" y2="31.471" gradientUnits="userSpaceOnUse">
<stop stop-color="#40B8FF"/>
<stop offset="0.00657445" stop-color="#40B9FF"/>
<stop offset="0.2601" stop-color="#40CEFF"/>
<stop offset="0.5122" stop-color="#40DDFF"/>
<stop offset="0.7604" stop-color="#40E7FF"/>
<stop offset="1" stop-color="#40EAFF"/>
</linearGradient>
<linearGradient id="paint11_linear_1565_34588" x1="9.81345" y1="0.234335" x2="22.3866" y2="12.7567" gradientUnits="userSpaceOnUse">
<stop stop-color="#65B895"/>
<stop offset="0.0685" stop-color="#62BD95"/>
<stop offset="0.4762" stop-color="#50DB97"/>
<stop offset="0.8009" stop-color="#44ED98"/>
<stop offset="1" stop-color="#40F498"/>
</linearGradient>
</defs>
</svg>
