<svg width="29" height="28" viewBox="0 0 29 28" fill="none" xmlns="http://www.w3.org/2000/svg">
<g clip-path="url(#clip0_1565_34604)">
<path d="M28.0544 14.0969C28.0544 6.44083 21.8479 0.234375 14.1919 0.234375C6.53581 0.234375 0.329346 6.44083 0.329346 14.0969C0.329346 21.016 5.39864 26.7511 12.0259 27.791V18.104H8.50607V14.0969H12.0259V11.0428C12.0259 7.56852 14.0955 5.64942 17.2619 5.64942C18.7782 5.64942 20.365 5.92018 20.365 5.92018V9.33166H18.6171C16.8951 9.33166 16.3579 10.4003 16.3579 11.4977V14.0969H20.2026L19.588 18.104H16.3579V27.791C22.9851 26.7511 28.0544 21.016 28.0544 14.0969Z" fill="#2F2F2F"/>
</g>
<defs>
<clipPath id="clip0_1565_34604">
<rect width="27.7251" height="27.7251" fill="white" transform="translate(0.329346 0.234375)"/>
</clipPath>
</defs>
</svg>
