<svg width="85" height="28" viewBox="0 0 85 28" fill="none" xmlns="http://www.w3.org/2000/svg">
<path fill-rule="evenodd" clip-rule="evenodd" d="M11.011 9.94632V12.9148L18.1008 12.9117C17.8834 14.5489 17.3316 15.7477 16.4928 16.5867C15.4589 17.6214 13.8452 18.7602 11.011 18.7602C6.64254 18.7602 3.22443 15.2367 3.22443 10.8644C3.22443 6.49213 6.64254 2.96846 11.011 2.96846C13.3687 2.96846 15.0896 3.89591 16.3604 5.08833L18.4534 2.9937C16.6823 1.29969 14.3246 0 11.0138 0C5.03172 0 0 4.87698 0 10.8644C0 16.8518 5.03172 21.7287 11.0138 21.7287C14.2424 21.7287 16.6795 20.6688 18.5857 18.6814C20.5463 16.7192 21.1552 13.9653 21.1552 11.7382C21.1552 11.0757 21.1051 10.4638 21.0075 9.94632H11.011ZM70.8148 21.3028V0.798046H67.8202V21.3028H70.8148ZM29.3612 21.7318C33.2252 21.7318 36.3744 18.7633 36.3744 14.7349C36.3744 10.6781 33.2252 7.73811 29.3612 7.73811C25.4958 7.73811 22.3466 10.6781 22.3466 14.7349C22.3466 18.7633 25.4958 21.7318 29.3612 21.7318ZM29.3612 10.4952C31.4793 10.4952 33.3047 12.2176 33.3047 14.7349C33.3047 17.224 31.4793 18.9747 29.3612 18.9747C27.2432 18.9747 25.4178 17.2271 25.4178 14.7349C25.4178 12.2176 27.2432 10.4952 29.3612 10.4952ZM44.4926 21.7318C48.3566 21.7318 51.5058 18.7633 51.5058 14.7349C51.5058 10.6781 48.3566 7.73811 44.4926 7.73811C40.6272 7.73811 37.478 10.6813 37.478 14.7349C37.478 18.7633 40.6272 21.7318 44.4926 21.7318ZM44.4926 10.4952C46.6107 10.4952 48.4361 12.2176 48.4361 14.7349C48.4361 17.224 46.6107 18.9747 44.4926 18.9747C42.3746 18.9747 40.5492 17.2271 40.5492 14.7349C40.5492 12.2176 42.3746 10.4952 44.4926 10.4952ZM66.0074 8.16398V20.7223C66.0074 25.8895 62.9613 28 59.362 28C55.9732 28 53.9332 25.7318 53.164 23.877L55.8366 22.7634C56.3132 23.9022 57.4795 25.246 59.3579 25.246C61.6626 25.246 63.0909 23.8233 63.0909 21.1451V20.1388H62.9836C62.2966 20.9873 60.9729 21.7287 59.3021 21.7287C55.806 21.7287 52.6025 18.6813 52.6025 14.7602C52.6025 10.8107 55.806 7.73811 59.3021 7.73811C60.9687 7.73811 62.2939 8.47938 62.9836 9.3028H63.0909V8.16398H66.0074ZM63.3083 14.7602C63.3083 12.2965 61.6654 10.4952 59.5752 10.4952C57.4572 10.4952 55.6834 12.2965 55.6834 14.7602C55.6834 17.1988 57.4572 18.9747 59.5752 18.9747C61.6654 18.9747 63.3083 17.1988 63.3083 14.7602ZM82.4848 17.0378L84.8676 18.6278C84.0984 19.7666 82.2452 21.7287 79.0416 21.7287C75.0703 21.7287 72.1037 18.6562 72.1037 14.7319C72.1037 10.571 75.0954 7.73502 78.6989 7.73502C82.3274 7.73502 84.1012 10.6246 84.6823 12.1862L85 12.9812L75.6528 16.8549C76.369 18.2587 77.481 18.9748 79.0416 18.9748C80.6051 18.9748 81.6906 18.2051 82.4848 17.0378ZM75.1484 14.5205L81.3966 11.9243C81.0538 11.0504 80.0198 10.4416 78.802 10.4416C77.2427 10.4416 75.0703 11.8202 75.1484 14.5205Z" fill="#2D2F30"/>
</svg>
