<svg width="29" height="28" viewBox="0 0 29 28" fill="none" xmlns="http://www.w3.org/2000/svg">
<g clip-path="url(#clip0_1565_34602)">
<path d="M14.6843 2.73071C18.3882 2.73071 18.8268 2.74696 20.2835 2.81194C21.6372 2.8715 22.3683 3.09894 22.8556 3.28846C23.5 3.53756 23.9657 3.8408 24.4476 4.32274C24.935 4.81009 25.2328 5.27037 25.4819 5.91476C25.6714 6.40212 25.8989 7.13856 25.9584 8.48691C26.0234 9.94897 26.0397 10.3876 26.0397 14.0861C26.0397 17.79 26.0234 18.2286 25.9584 19.6852C25.8989 21.039 25.6714 21.77 25.4819 22.2574C25.2328 22.9018 24.9296 23.3675 24.4476 23.8494C23.9603 24.3368 23.5 24.6346 22.8556 24.8837C22.3683 25.0732 21.6318 25.3006 20.2835 25.3602C18.8214 25.4252 18.3828 25.4414 14.6843 25.4414C10.9804 25.4414 10.5418 25.4252 9.08514 25.3602C7.73138 25.3006 7.00035 25.0732 6.51299 24.8837C5.8686 24.6346 5.40291 24.3314 4.92097 23.8494C4.43362 23.3621 4.13579 22.9018 3.8867 22.2574C3.69717 21.77 3.46974 21.0336 3.41017 19.6852C3.34519 18.2232 3.32895 17.7846 3.32895 14.0861C3.32895 10.3822 3.34519 9.94356 3.41017 8.48691C3.46974 7.13315 3.69717 6.40212 3.8867 5.91476C4.13579 5.27037 4.43903 4.80468 4.92097 4.32274C5.40832 3.83538 5.8686 3.53756 6.51299 3.28846C7.00035 3.09894 7.7368 2.8715 9.08514 2.81194C10.5418 2.74696 10.9804 2.73071 14.6843 2.73071ZM14.6843 0.234375C10.9208 0.234375 10.4497 0.25062 8.97143 0.315601C7.49853 0.380581 6.48592 0.618843 5.60868 0.959992C4.69354 1.31738 3.91919 1.78849 3.15025 2.56285C2.3759 3.33178 1.90479 4.10614 1.54739 5.01586C1.20625 5.89852 0.967984 6.90572 0.903003 8.37861C0.838022 9.86233 0.821777 10.3334 0.821777 14.0969C0.821777 17.8604 0.838022 18.3315 0.903003 19.8098C0.967984 21.2827 1.20625 22.2953 1.54739 23.1725C1.90479 24.0877 2.3759 24.862 3.15025 25.631C3.91919 26.3999 4.69354 26.8764 5.60327 27.2284C6.48592 27.5695 7.49312 27.8078 8.96601 27.8728C10.4443 27.9378 10.9154 27.954 14.6789 27.954C18.4424 27.954 18.9135 27.9378 20.3918 27.8728C21.8647 27.8078 22.8773 27.5695 23.7545 27.2284C24.6642 26.8764 25.4386 26.3999 26.2075 25.631C26.9765 24.862 27.453 24.0877 27.805 23.1779C28.1461 22.2953 28.3844 21.2881 28.4494 19.8152C28.5143 18.3369 28.5306 17.8658 28.5306 14.1023C28.5306 10.3389 28.5143 9.86775 28.4494 8.38944C28.3844 6.91655 28.1461 5.90393 27.805 5.02669C27.4638 4.10614 26.9927 3.33178 26.2184 2.56285C25.4494 1.79391 24.6751 1.31739 23.7653 0.965407C22.8827 0.624259 21.8755 0.385996 20.4026 0.321016C18.9189 0.25062 18.4478 0.234375 14.6843 0.234375Z" fill="#2F2F2F"/>
<path d="M14.6843 6.97607C10.7529 6.97607 7.56348 10.1655 7.56348 14.0969C7.56348 18.0282 10.7529 21.2177 14.6843 21.2177C18.6156 21.2177 21.8051 18.0282 21.8051 14.0969C21.8051 10.1655 18.6156 6.97607 14.6843 6.97607ZM14.6843 18.7159C12.1338 18.7159 10.0652 16.6474 10.0652 14.0969C10.0652 11.5464 12.1338 9.47783 14.6843 9.47783C17.2348 9.47783 19.3033 11.5464 19.3033 14.0969C19.3033 16.6474 17.2348 18.7159 14.6843 18.7159Z" fill="#2F2F2F"/>
<path d="M23.7492 6.69514C23.7492 7.6157 23.0019 8.35756 22.0867 8.35756C21.1662 8.35756 20.4243 7.61028 20.4243 6.69514C20.4243 5.77458 21.1716 5.03271 22.0867 5.03271C23.0019 5.03271 23.7492 5.77999 23.7492 6.69514Z" fill="#2F2F2F"/>
</g>
<defs>
<clipPath id="clip0_1565_34602">
<rect width="27.7251" height="27.7251" fill="white" transform="translate(0.821777 0.234375)"/>
</clipPath>
</defs>
</svg>
