<svg width="148" height="50" viewBox="0 0 148 50" fill="none" xmlns="http://www.w3.org/2000/svg">
<path d="M135.842 0.0172507H11.8098C11.3576 0.0172507 10.9109 0.0172507 10.46 0.0197251C10.0826 0.0221995 9.70812 0.0293878 9.32703 0.0354377C8.49914 0.0452139 7.67319 0.118302 6.85637 0.254066C6.0407 0.392785 5.25058 0.654312 4.51273 1.0298C3.77578 1.40846 3.10242 1.9005 2.51705 2.48805C1.92862 3.07396 1.43811 3.75118 1.0644 4.49369C0.689649 5.23472 0.429798 6.0288 0.293818 6.8485C0.156546 7.66717 0.0826778 8.49529 0.072878 9.32541C0.0614365 9.70473 0.0602282 10.0853 0.0541992 10.4647V39.062C0.0602282 39.4461 0.0614365 39.8183 0.072878 40.2026C0.0826808 41.0327 0.156549 41.8607 0.293818 42.6794C0.429423 43.4995 0.689289 44.2941 1.0644 45.0354C1.43794 45.7755 1.92852 46.45 2.51705 47.0326C3.1002 47.6228 3.774 48.1152 4.51273 48.4909C5.25057 48.8674 6.04061 49.1305 6.85637 49.2714C7.67333 49.406 8.49919 49.4792 9.32703 49.4901C9.70812 49.4985 10.0826 49.5033 10.46 49.5033C10.9109 49.5058 11.3577 49.5058 11.8098 49.5058H135.842C136.285 49.5058 136.736 49.5058 137.179 49.5033C137.554 49.5033 137.94 49.4985 138.315 49.4901C139.142 49.4797 139.966 49.4066 140.781 49.2714C141.6 49.1295 142.392 48.8665 143.134 48.4909C143.872 48.1149 144.545 47.6226 145.128 47.0326C145.715 46.4477 146.206 45.7737 146.585 45.0354C146.957 44.2935 147.214 43.4991 147.348 42.6794C147.485 41.8606 147.562 41.0327 147.577 40.2026C147.581 39.8183 147.581 39.4461 147.581 39.062C147.591 38.6125 147.591 38.1655 147.591 37.7087V11.8155C147.591 11.3624 147.591 10.9129 147.581 10.4647C147.581 10.0853 147.581 9.70473 147.577 9.32536C147.562 8.49516 147.485 7.66724 147.348 6.84845C147.214 6.02922 146.956 5.2352 146.585 4.49364C145.823 3.00536 144.617 1.79392 143.134 1.02969C142.392 0.655118 141.599 0.393661 140.781 0.253954C139.966 0.117592 139.142 0.044479 138.315 0.0352645C137.94 0.0292269 137.554 0.0219768 137.179 0.0195643C136.736 0.0170898 136.285 0.0170898 135.842 0.0170898V0.0172507Z" fill="#A6A6A6"/>
<path d="M10.4659 48.423C10.0902 48.423 9.72364 48.4182 9.35094 48.4098C8.57886 48.3997 7.80858 48.3323 7.04643 48.208C6.33576 48.0852 5.64731 47.8567 5.00379 47.5301C4.36617 47.2063 3.78462 46.7816 3.28139 46.2724C2.77089 45.7692 2.34587 45.1856 2.02318 44.5446C1.69694 43.8995 1.47116 43.2081 1.3537 42.4943C1.22687 41.7274 1.15824 40.9519 1.14842 40.1745C1.1406 39.9136 1.13037 39.0448 1.13037 39.0448V10.4645C1.13037 10.4645 1.14127 9.60908 1.14848 9.35777C1.15788 8.58164 1.22611 7.80735 1.35257 7.04161C1.47024 6.32591 1.69619 5.63245 2.02261 4.98524C2.34412 4.34475 2.76678 3.76068 3.27421 3.25568C3.78107 2.74587 4.36449 2.31901 5.00319 1.99066C5.64523 1.66513 6.33237 1.43828 7.04161 1.31769C7.80627 1.1922 8.57922 1.12435 9.35397 1.11472L10.4665 1.09961H137.172L138.298 1.11532C139.066 1.12448 139.832 1.19172 140.589 1.31648C141.306 1.43858 142 1.66701 142.65 1.99429C143.929 2.65601 144.97 3.70291 145.627 4.98826C145.948 5.631 146.171 6.3188 146.287 7.02833C146.415 7.80035 146.487 8.58072 146.501 9.36321C146.505 9.71359 146.505 10.0899 146.505 10.4645C146.515 10.9285 146.515 11.3701 146.515 11.8153V37.7085C146.515 38.158 146.515 38.5966 146.505 39.0388C146.505 39.4411 146.505 39.8097 146.5 40.189C146.486 40.9575 146.415 41.724 146.289 42.4822C146.174 43.2011 145.95 43.8979 145.624 44.5483C145.299 45.1823 144.876 45.7609 144.371 46.2627C143.868 46.7747 143.285 47.2018 142.646 47.5278C141.998 47.8569 141.305 48.0862 140.589 48.208C139.827 48.3329 139.057 48.4004 138.285 48.4098C137.924 48.4182 137.546 48.423 137.178 48.423L135.842 48.4255L10.4659 48.423Z" fill="black"/>
<path d="M30.5924 25.1334C30.6056 24.1007 30.879 23.0882 31.387 22.1901C31.895 21.2919 32.6211 20.5373 33.4978 19.9964C32.9409 19.1982 32.2061 18.5413 31.3519 18.0779C30.4977 17.6145 29.5476 17.3573 28.577 17.3269C26.5067 17.1088 24.4995 18.5701 23.4445 18.5701C22.369 18.5701 20.7447 17.3485 18.9955 17.3846C17.8641 17.4213 16.7614 17.7515 15.7949 18.3429C14.8285 18.9344 14.0312 19.767 13.4807 20.7596C11.0962 24.9023 12.8748 30.9907 15.159 34.3394C16.3018 35.9791 17.6374 37.8107 19.385 37.7458C21.0951 37.6746 21.7338 36.6515 23.7981 36.6515C25.8432 36.6515 26.4425 37.7458 28.2255 37.7045C30.0606 37.6746 31.2168 36.0575 32.3195 34.4022C33.1406 33.2338 33.7724 31.9425 34.1916 30.5761C33.1255 30.1236 32.2157 29.3662 31.5756 28.3983C30.9356 27.4305 30.5936 26.295 30.5924 25.1334Z" fill="white"/>
<path d="M27.2244 15.1248C28.225 13.9195 28.7179 12.3703 28.5986 10.8062C27.0699 10.9673 25.6579 11.7004 24.6439 12.8594C24.148 13.4257 23.7683 14.0844 23.5264 14.798C23.2844 15.5116 23.185 16.266 23.2337 17.0182C23.9983 17.0261 24.7547 16.8598 25.446 16.5318C26.1372 16.2039 26.7453 15.7228 27.2244 15.1248Z" fill="white"/>
<path d="M52.2098 33.5949H46.3739L44.9724 37.7475H42.5005L48.0282 22.3838H50.5964L56.1241 37.7475H53.6101L52.2098 33.5949ZM46.9783 31.6786H51.6042L49.3238 24.9392H49.26L46.9783 31.6786Z" fill="white"/>
<path d="M68.0622 32.1473C68.0622 35.6282 66.2056 37.8646 63.4038 37.8646C62.6941 37.9019 61.9882 37.7378 61.3671 37.3912C60.7459 37.0446 60.2346 36.5295 59.8916 35.9049H59.8386V41.453H57.5474V26.546H59.7652V28.4091H59.8074C60.1661 27.7874 60.686 27.275 61.3119 26.9263C61.9378 26.5776 62.6462 26.4057 63.3617 26.4288C66.1947 26.4288 68.0622 28.6761 68.0622 32.1473ZM65.7071 32.1473C65.7071 29.8795 64.5392 28.3886 62.7572 28.3886C61.0066 28.3886 59.829 29.9109 59.829 32.1473C59.829 34.4043 61.0066 35.9158 62.7572 35.9158C64.5392 35.9158 65.7071 34.4357 65.7071 32.1473Z" fill="white"/>
<path d="M80.3481 32.1473C80.3481 35.6282 78.4915 37.8646 75.6897 37.8646C74.98 37.9018 74.2741 37.7378 73.653 37.3912C73.0318 37.0446 72.5205 36.5295 72.1775 35.9048H72.1245V41.453H69.8333V26.546H72.0511V28.4091H72.0932C72.4519 27.7874 72.9719 27.275 73.5978 26.9263C74.2236 26.5776 74.932 26.4057 75.6475 26.4288C78.4806 26.4288 80.3481 28.6761 80.3481 32.1473ZM77.993 32.1473C77.993 29.8795 76.8251 28.3885 75.0431 28.3885C73.2925 28.3885 72.1149 29.9109 72.1149 32.1473C72.1149 34.4043 73.2925 35.9157 75.0431 35.9157C76.8251 35.9157 77.993 34.4357 77.993 32.1473H77.993Z" fill="white"/>
<path d="M88.4678 33.4666C88.6376 34.9902 90.1125 35.9905 92.1281 35.9905C94.0593 35.9905 95.4488 34.9901 95.4488 33.6164C95.4488 32.4239 94.6108 31.7098 92.6265 31.2205L90.6423 30.7408C87.8309 30.0594 86.5257 28.74 86.5257 26.5991C86.5257 23.9482 88.8278 22.1274 92.0968 22.1274C95.332 22.1274 97.5498 23.9482 97.6245 26.5991H95.3115C95.173 25.0658 93.91 24.1403 92.0642 24.1403C90.2184 24.1403 88.9554 25.0767 88.9554 26.4396C88.9554 27.5258 89.7621 28.1649 91.7355 28.6542L93.4224 29.0698C96.5637 29.8153 97.8688 31.0815 97.8688 33.3288C97.8688 36.2031 95.5872 38.0034 91.9583 38.0034C88.5629 38.0034 86.2704 36.2454 86.1223 33.4665L88.4678 33.4666Z" fill="white"/>
<path d="M102.814 23.895V26.5458H104.937V28.3666H102.814V34.5418C102.814 35.5011 103.239 35.9482 104.172 35.9482C104.424 35.9438 104.676 35.926 104.926 35.895V37.7049C104.506 37.7836 104.08 37.8192 103.653 37.8112C101.393 37.8112 100.512 36.9594 100.512 34.7871V28.3666H98.8887V26.5458H100.512V23.895H102.814Z" fill="white"/>
<path d="M106.166 32.1472C106.166 28.6229 108.235 26.4082 111.46 26.4082C114.697 26.4082 116.755 28.6228 116.755 32.1472C116.755 35.6813 114.707 37.8862 111.46 37.8862C108.214 37.8862 106.166 35.6813 106.166 32.1472ZM114.421 32.1472C114.421 29.7296 113.317 28.3027 111.46 28.3027C109.604 28.3027 108.501 29.7405 108.501 32.1472C108.501 34.5745 109.604 35.9906 111.46 35.9906C113.317 35.9906 114.421 34.5745 114.421 32.1472H114.421Z" fill="white"/>
<path d="M118.645 26.5459H120.83V28.4525H120.883C121.031 27.857 121.378 27.3308 121.867 26.9622C122.356 26.5937 122.957 26.4053 123.568 26.4287C123.832 26.4278 124.095 26.4566 124.353 26.5145V28.6651C124.02 28.5629 123.672 28.516 123.323 28.5262C122.991 28.5126 122.659 28.5715 122.351 28.6988C122.043 28.8261 121.766 29.0188 121.539 29.2636C121.312 29.5084 121.141 29.7996 121.037 30.1172C120.932 30.4347 120.898 30.7711 120.936 31.1033V37.7473H118.645L118.645 26.5459Z" fill="white"/>
<path d="M134.917 34.4573C134.609 36.4908 132.635 37.8862 130.11 37.8862C126.863 37.8862 124.848 35.703 124.848 32.2004C124.848 28.6869 126.874 26.4082 130.014 26.4082C133.102 26.4082 135.045 28.5371 135.045 31.9334V32.7211H127.161V32.8601C127.124 33.2723 127.176 33.6876 127.311 34.0784C127.447 34.4691 127.664 34.8264 127.948 35.1265C128.232 35.4266 128.577 35.6626 128.959 35.8189C129.341 35.9751 129.751 36.0481 130.163 36.0328C130.705 36.0837 131.248 35.9579 131.713 35.674C132.177 35.3902 132.538 34.9634 132.741 34.4573L134.917 34.4573ZM127.171 31.1142H132.752C132.773 30.7435 132.717 30.3726 132.588 30.0247C132.459 29.6768 132.259 29.3594 132.002 29.0924C131.745 28.8255 131.436 28.6147 131.094 28.4734C130.752 28.3321 130.384 28.2633 130.014 28.2713C129.641 28.269 129.271 28.341 128.926 28.4829C128.581 28.6249 128.267 28.8341 128.002 29.0984C127.738 29.3627 127.529 29.6769 127.386 30.0229C127.243 30.3689 127.17 30.7398 127.171 31.1142V31.1142Z" fill="white"/>
<path d="M46.691 10.8194C47.1713 10.7848 47.6534 10.8576 48.1023 11.0326C48.5512 11.2076 48.9558 11.4804 49.287 11.8313C49.6181 12.1822 49.8675 12.6025 50.0172 13.0618C50.1669 13.5212 50.2131 14.0081 50.1526 14.4876C50.1526 16.846 48.8823 18.2017 46.691 18.2017H44.0337V10.8194H46.691ZM45.1763 17.1577H46.5633C46.9066 17.1782 47.2501 17.1218 47.5689 16.9923C47.8876 16.8629 48.1736 16.6638 48.406 16.4095C48.6384 16.1551 48.8114 15.852 48.9123 15.5221C49.0132 15.1923 49.0396 14.844 48.9895 14.5026C49.036 14.1626 49.0069 13.8164 48.9044 13.489C48.802 13.1615 48.6286 12.8609 48.3967 12.6086C48.1648 12.3563 47.8802 12.1586 47.5633 12.0296C47.2463 11.9006 46.9048 11.8436 46.5633 11.8626H45.1763V17.1577Z" fill="white"/>
<path d="M51.4433 15.4135C51.4084 15.0474 51.4501 14.678 51.5658 14.3291C51.6815 13.9801 51.8686 13.6592 52.1151 13.3871C52.3617 13.1149 52.6621 12.8974 52.9973 12.7486C53.3325 12.5998 53.6949 12.5229 54.0615 12.5229C54.428 12.5229 54.7904 12.5998 55.1256 12.7486C55.4608 12.8974 55.7613 13.1149 56.0078 13.3871C56.2543 13.6592 56.4414 13.9801 56.5571 14.3291C56.6728 14.678 56.7145 15.0474 56.6796 15.4135C56.7152 15.78 56.6739 16.1499 56.5586 16.4995C56.4432 16.849 56.2562 17.1705 56.0096 17.4432C55.763 17.7159 55.4623 17.9338 55.1268 18.0829C54.7913 18.2321 54.4284 18.3091 54.0615 18.3091C53.6945 18.3091 53.3316 18.2321 52.9961 18.0829C52.6606 17.9338 52.3599 17.7159 52.1133 17.4432C51.8667 17.1705 51.6798 16.849 51.5644 16.4995C51.449 16.1499 51.4077 15.78 51.4433 15.4135ZM55.5526 15.4135C55.5526 14.2059 55.012 13.4997 54.0633 13.4997C53.1109 13.4997 52.5751 14.2059 52.5751 15.4136C52.5751 16.6308 53.1109 17.3316 54.0633 17.3316C55.012 17.3316 55.5526 16.626 55.5526 15.4135H55.5526Z" fill="white"/>
<path d="M63.6401 18.2015H62.5035L61.3561 14.0983H61.2694L60.1268 18.2015H59.001L57.4707 12.6304H58.582L59.5766 16.8814H59.6584L60.7999 12.6304H61.851L62.9924 16.8814H63.0791L64.0688 12.6304H65.1645L63.6401 18.2015Z" fill="white"/>
<path d="M66.4514 12.6301H67.5061V13.5151H67.588C67.7269 13.1973 67.9612 12.9308 68.2582 12.7529C68.5551 12.575 68.9 12.4945 69.2448 12.5226C69.5149 12.5022 69.7861 12.5431 70.0384 12.6422C70.2906 12.7413 70.5174 12.896 70.702 13.095C70.8865 13.294 71.0241 13.5321 71.1045 13.7917C71.1849 14.0513 71.206 14.3258 71.1664 14.5947V18.2011H70.0707V14.8708C70.0707 13.9755 69.683 13.5302 68.8727 13.5302C68.6893 13.5217 68.5062 13.553 68.336 13.6221C68.1658 13.6911 68.0125 13.7963 67.8866 13.9304C67.7607 14.0645 67.6651 14.2243 67.6065 14.399C67.5479 14.5736 67.5277 14.7588 67.5471 14.942V18.2012H66.4514L66.4514 12.6301Z" fill="white"/>
<path d="M72.9124 10.4556H74.008V18.2014H72.9124V10.4556Z" fill="white"/>
<path d="M75.5312 15.4137C75.4963 15.0475 75.538 14.6781 75.6538 14.3291C75.7695 13.9801 75.9566 13.6592 76.2032 13.3871C76.4497 13.1149 76.7502 12.8974 77.0854 12.7486C77.4206 12.5998 77.7831 12.5229 78.1496 12.5229C78.5162 12.5229 78.8786 12.5998 79.2138 12.7486C79.549 12.8974 79.8495 13.1149 80.0961 13.3871C80.3426 13.6592 80.5297 13.9801 80.6455 14.3291C80.7612 14.6781 80.803 15.0475 80.7681 15.4137C80.8036 15.7802 80.7623 16.1501 80.6469 16.4996C80.5315 16.8492 80.3444 17.1706 80.0978 17.4433C79.8512 17.716 79.5505 17.9339 79.215 18.083C78.8795 18.2321 78.5166 18.3092 78.1496 18.3092C77.7827 18.3092 77.4198 18.2321 77.0842 18.083C76.7487 17.9339 76.448 17.716 76.2014 17.4433C75.9548 17.1706 75.7678 16.8492 75.6523 16.4996C75.5369 16.1501 75.4956 15.7802 75.5312 15.4137ZM79.6405 15.4137C79.6405 14.206 79.0999 13.4998 78.1511 13.4998C77.1987 13.4998 76.663 14.206 76.663 15.4137C76.663 16.6309 77.1988 17.3317 78.1511 17.3317C79.0999 17.3317 79.6405 16.6261 79.6405 15.4137H79.6405Z" fill="white"/>
<path d="M81.9214 16.626C81.9214 15.6232 82.6655 15.0451 83.9863 14.9629L85.4901 14.8759V14.3951C85.4901 13.8067 85.1024 13.4744 84.3535 13.4744C83.7419 13.4744 83.3181 13.6998 83.1965 14.0936H82.1357C82.2477 13.1367 83.1447 12.5229 84.4041 12.5229C85.796 12.5229 86.581 13.2183 86.581 14.3951V18.2016H85.5263V17.4186H85.4396C85.2636 17.6995 85.0165 17.9284 84.7235 18.0821C84.4306 18.2358 84.1022 18.3087 83.772 18.2934C83.5389 18.3177 83.3034 18.2927 83.0805 18.2201C82.8576 18.1475 82.6524 18.0288 82.478 17.8717C82.3037 17.7146 82.1641 17.5226 82.0682 17.3081C81.9723 17.0935 81.9223 16.8612 81.9214 16.626ZM85.4901 16.15V15.6842L84.1344 15.7712C83.3698 15.8226 83.0231 16.0836 83.0231 16.5747C83.0231 17.0761 83.4565 17.3679 84.0526 17.3679C84.2272 17.3856 84.4036 17.3679 84.5713 17.3158C84.739 17.2638 84.8945 17.1784 85.0286 17.0648C85.1628 16.9511 85.2727 16.8116 85.352 16.6544C85.4313 16.4973 85.4783 16.3257 85.4901 16.15Z" fill="white"/>
<path d="M88.021 15.4135C88.021 13.6531 88.9228 12.5379 90.3255 12.5379C90.6725 12.5219 91.0168 12.6053 91.3183 12.7784C91.6198 12.9515 91.8659 13.2071 92.028 13.5153H92.1099V10.4556H93.2055V18.2014H92.1556V17.3213H92.0689C91.8944 17.6275 91.6396 17.8799 91.3323 18.0512C91.025 18.2226 90.6768 18.3063 90.3255 18.2933C88.9132 18.2933 88.021 17.1781 88.021 15.4135ZM89.1528 15.4135C89.1528 16.5951 89.7079 17.3062 90.6362 17.3062C91.5597 17.3062 92.1304 16.5849 92.1304 15.4183C92.1304 14.2572 91.5537 13.5257 90.6362 13.5257C89.7139 13.5257 89.1528 14.2415 89.1528 15.4135H89.1528Z" fill="white"/>
<path d="M97.7387 15.4135C97.7038 15.0474 97.7455 14.678 97.8612 14.3291C97.9769 13.9801 98.164 13.6592 98.4106 13.3871C98.6571 13.1149 98.9575 12.8974 99.2927 12.7486C99.6279 12.5998 99.9904 12.5229 100.357 12.5229C100.723 12.5229 101.086 12.5998 101.421 12.7486C101.756 12.8974 102.057 13.1149 102.303 13.3871C102.55 13.6592 102.737 13.9801 102.852 14.3291C102.968 14.678 103.01 15.0474 102.975 15.4135C103.011 15.78 102.969 16.1499 102.854 16.4995C102.739 16.849 102.552 17.1705 102.305 17.4432C102.058 17.7159 101.758 17.9338 101.422 18.0829C101.087 18.2321 100.724 18.3091 100.357 18.3091C99.9899 18.3091 99.627 18.2321 99.2915 18.0829C98.956 17.9338 98.6553 17.7159 98.4087 17.4432C98.1621 17.1705 97.9752 16.849 97.8598 16.4995C97.7444 16.1499 97.7031 15.78 97.7387 15.4135ZM101.848 15.4135C101.848 14.2059 101.307 13.4997 100.359 13.4997C99.4063 13.4997 98.8705 14.2059 98.8705 15.4136C98.8705 16.6308 99.4063 17.3316 100.359 17.3316C101.307 17.3316 101.848 16.626 101.848 15.4135Z" fill="white"/>
<path d="M104.445 12.6301H105.5V13.5151H105.582C105.721 13.1973 105.955 12.9308 106.252 12.7529C106.549 12.575 106.894 12.4945 107.239 12.5226C107.509 12.5022 107.78 12.5431 108.032 12.6422C108.285 12.7413 108.511 12.896 108.696 13.095C108.88 13.294 109.018 13.5321 109.098 13.7917C109.179 14.0513 109.2 14.3258 109.16 14.5947V18.2011H108.065V14.8708C108.065 13.9755 107.677 13.5302 106.867 13.5302C106.683 13.5217 106.5 13.553 106.33 13.6221C106.16 13.6911 106.006 13.7963 105.88 13.9304C105.755 14.0645 105.659 14.2243 105.6 14.399C105.542 14.5736 105.522 14.7588 105.541 14.942V18.2012H104.445V12.6301Z" fill="white"/>
<path d="M115.351 11.2432V12.6556H116.554V13.5817H115.351V16.4464C115.351 17.0299 115.591 17.2855 116.136 17.2855C116.276 17.285 116.415 17.2765 116.554 17.2601V18.1759C116.357 18.2112 116.158 18.23 115.958 18.2321C114.74 18.2321 114.254 17.802 114.254 16.7279V13.5816H113.373V12.6555H114.254V11.2432H115.351Z" fill="white"/>
<path d="M118.051 10.4556H119.137V13.5257H119.223C119.369 13.2048 119.61 12.9368 119.913 12.7583C120.216 12.5797 120.566 12.4991 120.916 12.5277C121.185 12.513 121.454 12.558 121.703 12.6595C121.952 12.761 122.176 12.9165 122.359 13.1149C122.542 13.3132 122.678 13.5496 122.76 13.8071C122.841 14.0646 122.864 14.3369 122.828 14.6046V18.2015H121.732V14.8758C121.732 13.986 121.319 13.5353 120.544 13.5353C120.356 13.5198 120.167 13.5458 119.989 13.6114C119.812 13.6771 119.651 13.7808 119.518 13.9153C119.385 14.0498 119.283 14.2119 119.219 14.3903C119.154 14.5686 119.13 14.7588 119.146 14.9477V18.2014H118.051L118.051 10.4556Z" fill="white"/>
<path d="M129.217 16.6974C129.068 17.2066 128.746 17.647 128.306 17.9417C127.866 18.2363 127.337 18.3664 126.811 18.3092C126.446 18.3189 126.082 18.2486 125.746 18.1032C125.41 17.9578 125.11 17.7407 124.866 17.4671C124.622 17.1935 124.44 16.8699 124.333 16.5188C124.226 16.1676 124.197 15.7974 124.247 15.4336C124.198 15.0688 124.228 14.6977 124.335 14.3455C124.441 13.9933 124.622 13.6682 124.865 13.3922C125.108 13.1162 125.407 12.8958 125.742 12.7458C126.077 12.5959 126.44 12.5199 126.807 12.523C128.351 12.523 129.283 13.5821 129.283 15.3315V15.7152H125.363V15.7768C125.346 15.9812 125.371 16.187 125.438 16.3809C125.505 16.5749 125.611 16.7527 125.75 16.9029C125.89 17.0532 126.059 17.1726 126.247 17.2535C126.434 17.3344 126.637 17.3751 126.841 17.3728C127.104 17.4044 127.369 17.357 127.604 17.2367C127.84 17.1165 128.034 16.9287 128.162 16.6974L129.217 16.6974ZM125.363 14.902H128.167C128.181 14.715 128.156 14.5272 128.093 14.3507C128.03 14.1741 127.931 14.0127 127.802 13.8767C127.674 13.7408 127.518 13.6334 127.345 13.5614C127.173 13.4895 126.987 13.4545 126.801 13.4588C126.611 13.4564 126.423 13.4921 126.247 13.5638C126.072 13.6355 125.912 13.7417 125.778 13.8762C125.645 14.0107 125.539 14.1708 125.467 14.347C125.396 14.5231 125.36 14.7119 125.363 14.902H125.363Z" fill="white"/>
</svg>
