<svg width="123" height="21" viewBox="0 0 123 21" fill="none" xmlns="http://www.w3.org/2000/svg">
<path fill-rule="evenodd" clip-rule="evenodd" d="M15.8443 0L11.5918 11.1085L7.314 0H0V20.1329H5.26358V6.82293L10.432 20.1329H12.7545L17.8947 6.82293V20.1329H23.1583V0H15.8443Z" fill="#2D2F30"/>
<path fill-rule="evenodd" clip-rule="evenodd" d="M33.8327 16.3915V15.0905C33.345 14.3968 32.2418 14.0639 31.2069 14.0639C29.9817 14.0639 28.8487 14.6095 28.8487 15.7549C28.8487 16.9004 29.9817 17.446 31.2069 17.446C32.2418 17.446 33.345 17.0837 33.8327 16.39V16.3915ZM33.8327 20.1315V18.6824C32.9153 19.7663 31.143 20.4937 29.2442 20.4937C26.9797 20.4937 24.168 18.9523 24.168 15.6919C24.168 12.1631 26.9782 10.9883 29.2442 10.9883C31.2069 10.9883 32.9495 11.6189 33.8327 12.7072V11.2581C33.8327 9.99092 32.7354 9.11532 30.8352 9.11532C29.3661 9.11532 27.8971 9.68732 26.7061 10.6847L24.9635 7.45359C26.8622 5.85492 29.4003 5.19052 31.6604 5.19052C35.2096 5.19052 38.5491 6.49145 38.5491 11.0176V20.1329H33.8327V20.1315Z" fill="#2D2F30"/>
<path fill-rule="evenodd" clip-rule="evenodd" d="M39.187 18.2307L41.1452 14.9131C42.2485 15.8752 44.6008 16.8725 46.3493 16.8725C47.7545 16.8725 48.3358 16.4765 48.3358 15.8459C48.3358 14.036 39.7401 15.9045 39.7401 9.99092C39.7401 7.42425 42.0047 5.19052 46.0698 5.19052C48.5797 5.19052 50.6583 5.97519 52.2508 7.12065L50.4502 10.4163C49.561 9.56705 47.8779 8.81172 46.1055 8.81172C45.0022 8.81172 44.2692 9.23559 44.2692 9.80905C44.2692 11.4077 52.8307 9.75039 52.8307 15.7271C52.8307 18.4991 50.3565 20.4937 46.1337 20.4937C43.4737 20.4937 40.7512 19.6167 39.187 18.2307Z" fill="#2D2F30"/>
<path fill-rule="evenodd" clip-rule="evenodd" d="M63.7563 20.1329V11.6453C63.7563 9.87067 62.8091 9.2972 61.3044 9.2972C59.929 9.2972 59.0116 10.0481 58.4645 10.7125V20.1315H53.748V0H58.4645V7.33333C59.3477 6.30667 61.0962 5.192 63.5704 5.192C66.9397 5.192 68.4667 7.06347 68.4667 9.7504V20.1329H63.7563Z" fill="#2D2F30"/>
<path fill-rule="evenodd" clip-rule="evenodd" d="M79.0845 16.3915V15.0905C78.5953 14.3968 77.4936 14.0639 76.4527 14.0639C75.2275 14.0639 74.0945 14.6095 74.0945 15.7549C74.0945 16.9004 75.2275 17.446 76.4527 17.446C77.4936 17.446 78.5953 17.0837 79.0845 16.39V16.3915ZM79.0845 20.1315V18.6824C78.1656 19.7663 76.3888 20.4937 74.496 20.4937C72.23 20.4937 69.4138 18.9523 69.4138 15.6919C69.4138 12.1631 72.23 10.9883 74.496 10.9883C76.4527 10.9883 78.1954 11.6189 79.0845 12.7072V11.2581C79.0845 9.99092 77.9798 9.11532 76.087 9.11532C74.6179 9.11532 73.1474 9.68732 71.9519 10.6847L70.2093 7.45359C72.1081 5.85492 74.6462 5.19052 76.9122 5.19052C80.4599 5.19052 83.7935 6.49145 83.7935 11.0176V20.1329H79.0845V20.1315Z" fill="#2D2F30"/>
<path fill-rule="evenodd" clip-rule="evenodd" d="M92.8486 16.3915C94.7132 16.3915 96.1243 15.0275 96.1243 12.8275C96.1243 10.6568 94.7132 9.2928 92.8486 9.2928C91.8376 9.2928 90.6183 9.83693 90.0325 10.6216V15.0905C90.6183 15.8752 91.839 16.3915 92.8486 16.3915ZM85.322 20.1315V0H90.0325V7.27467C91.0814 5.94296 92.7018 5.17228 94.4114 5.192C98.1107 5.192 100.928 8.0608 100.928 12.8275C100.928 17.7775 98.0528 20.4937 94.4114 20.4937C92.7565 20.4937 91.2577 19.8293 90.0325 18.4419V20.1329H85.322V20.1315Z" fill="#2D2F30"/>
<path fill-rule="evenodd" clip-rule="evenodd" d="M101.875 0H106.586V20.1329H101.875V0Z" fill="#2D2F30"/>
<path fill-rule="evenodd" clip-rule="evenodd" d="M115.368 8.93199C113.316 8.93199 112.522 10.1405 112.334 11.1951H118.428C118.301 10.1684 117.54 8.93199 115.368 8.93199ZM107.532 12.8275C107.532 8.60492 110.743 5.19052 115.368 5.19052C119.741 5.19052 122.924 8.35852 122.924 13.3085V14.3689H112.4C112.736 15.664 113.961 16.7523 116.099 16.7523C117.14 16.7523 118.853 16.2991 119.712 15.5144L121.757 18.5621C120.292 19.8572 117.842 20.4937 115.582 20.4937C111.023 20.4937 107.532 17.5663 107.532 12.8275Z" fill="#2D2F30"/>
</svg>
