<svg width="71" height="31" viewBox="0 0 71 31" fill="none" xmlns="http://www.w3.org/2000/svg">
<path fill-rule="evenodd" clip-rule="evenodd" d="M4.98392 12.1475C4.98392 11.3405 5.62431 11.0301 6.66843 11.0301C8.17196 11.0301 10.0514 11.5061 11.5549 12.3546V7.49129C9.92608 6.80842 8.29725 6.53938 6.66843 6.53938C2.65902 6.53938 0 8.73305 0 12.3961C0 18.1075 7.4898 17.1971 7.4898 19.6598C7.4898 20.6115 6.7102 20.922 5.59647 20.922C3.96765 20.922 1.87941 20.2183 0.222745 19.2665V24.1917C2.04647 25.0195 3.89804 25.3712 5.59647 25.3712C9.70333 25.3712 12.5294 23.2399 12.5294 19.5355C12.5016 13.3686 4.98392 14.4653 4.98392 12.1475ZM18.3208 2.40057L13.5039 3.47661L13.49 20.0528C13.49 23.1157 15.6757 25.3712 18.5992 25.3712C20.2141 25.3712 21.3975 25.0608 22.0518 24.6884V20.4873C21.4253 20.7565 18.3069 21.7083 18.3069 18.6455V11.2991H22.0518V6.89122H18.3069L18.3208 2.40057ZM28.1773 8.42253L27.871 6.89122H23.611V24.9987H28.5392V12.727C29.6947 11.1336 31.6716 11.4234 32.2841 11.6509V6.89122C31.6576 6.64284 29.3467 6.18754 28.1773 8.42253ZM33.4814 6.89122H38.4375V24.9987H33.4814V6.89122ZM33.4814 5.31843L38.4375 4.20094V0L33.4814 1.09684V5.31829V5.31843ZM48.7394 6.53938C46.8043 6.53938 45.5514 7.49129 44.8692 8.15363L44.6047 6.87056H40.2751V31L45.2033 29.9033L45.2173 24.0468C45.9273 24.5848 46.9714 25.3505 48.7116 25.3505C52.2476 25.3505 55.4635 22.3706 55.4635 15.8106C55.4357 9.80908 52.192 6.53938 48.7394 6.53938ZM47.5561 20.7978C46.3867 20.7978 45.6906 20.3633 45.2173 19.8252L45.2033 12.1475C45.7184 11.5475 46.4284 11.1336 47.5561 11.1336C49.338 11.1336 50.591 13.2443 50.591 15.9553C50.591 18.7284 49.3659 20.7978 47.5561 20.7978ZM71 16.0174C71 10.7197 68.5498 6.53938 63.8861 6.53938C59.1806 6.53938 56.3406 10.7198 56.3406 15.9761C56.3406 22.205 59.6957 25.3505 64.5126 25.3505C66.8514 25.3505 68.6333 24.7918 69.9698 24.0054V19.8665C68.6333 20.5702 67.088 21.0049 65.139 21.0049C63.2318 21.0049 61.5333 20.3012 61.3106 17.8592H70.9582C70.9582 17.5901 71 16.514 71 16.0174ZM61.2549 14.0515C61.2549 11.7131 62.6192 10.7404 63.8582 10.7404C65.0694 10.7404 66.3502 11.7131 66.3502 14.0515H61.2549Z" fill="#2D2F30"/>
</svg>
