<svg width="50" height="65" viewBox="0 0 50 65" fill="none" xmlns="http://www.w3.org/2000/svg">
<path d="M38.625 64.25C36.5236 64.25 34.4693 63.6269 32.7221 62.4594C30.9748 61.2919 29.613 59.6325 28.8088 57.691C28.0046 55.7496 27.7942 53.6132 28.2042 51.5522C28.6141 49.4911 29.6261 47.5979 31.112 46.112C32.5979 44.6261 34.4911 43.6141 36.5522 43.2042C38.6132 42.7942 40.7496 43.0046 42.691 43.8088C44.6325 44.613 46.2919 45.9748 47.4594 47.7221C48.6269 49.4693 49.25 51.5236 49.25 53.625C49.25 56.4429 48.1306 59.1454 46.138 61.138C44.1454 63.1306 41.4429 64.25 38.625 64.25ZM38.625 46.0458C37.126 46.0458 35.6606 46.4904 34.4142 47.3232C33.1679 48.156 32.1964 49.3397 31.6228 50.7246C31.0491 52.1095 30.899 53.6334 31.1915 55.1036C31.4839 56.5738 32.2058 57.9243 33.2657 58.9843C34.3257 60.0443 35.6762 60.7661 37.1464 61.0585C38.6166 61.351 40.1405 61.2009 41.5254 60.6272C42.9103 60.0536 44.094 59.0822 44.9269 57.8358C45.7597 56.5894 46.2042 55.124 46.2042 53.625C46.2042 51.6149 45.4057 49.6871 43.9843 48.2657C42.5629 46.8444 40.6351 46.0458 38.625 46.0458Z" fill="#142636"/>
<path d="M28.7586 50.1729C29.2907 48.6352 30.177 47.2441 31.346 46.1121C32.5149 44.9801 33.9337 44.1388 35.4877 43.6563C37.0755 43.1412 38.7622 43.0075 40.4113 43.2659C42.0604 43.5243 43.6253 44.1677 44.9794 45.1438V17.8729C44.9535 16.0565 44.2308 14.3195 42.9606 13.0208L32.9731 2.75C32.3129 2.07646 31.5249 1.54155 30.6552 1.17665C29.7855 0.811744 28.8517 0.624195 27.9086 0.625003H8.88981C6.69798 0.653024 4.60651 1.54826 3.0732 3.11475C1.5399 4.68125 0.689647 6.7914 0.708561 8.98334V52.475C0.689647 54.6669 1.5399 56.7771 3.0732 58.3436C4.60651 59.9101 6.69798 60.8053 8.88981 60.8333H30.919C29.6318 59.4159 28.7515 57.6771 28.3712 55.8005C27.9909 53.924 28.1247 51.9796 28.7586 50.1729Z" fill="#F7D046"/>
<path fill-rule="evenodd" clip-rule="evenodd" d="M42.0933 50.2202C42.6924 50.6208 42.8534 51.4312 42.4528 52.0303L39.3472 56.6758C39.1126 57.0266 38.7228 57.2424 38.3009 57.2549C37.879 57.2673 37.4771 57.0749 37.2222 56.7385L35.2648 54.1548C34.8297 53.5803 34.9426 52.7619 35.517 52.3267C36.0914 51.8915 36.9099 52.0044 37.3451 52.5788L38.1959 53.7019L40.2832 50.5798C40.6837 49.9807 41.4941 49.8197 42.0933 50.2202Z" fill="#F7D046"/>
</svg>
