<svg width="58" height="58" viewBox="0 0 58 58" fill="none" xmlns="http://www.w3.org/2000/svg">
<path d="M34.4673 17.4552C34.8605 17.0619 34.7707 16.4017 34.2685 16.1628C32.1796 15.1688 29.8892 14.6553 27.5665 14.6666C24.4481 14.6666 21.3998 15.5913 18.807 17.3238C16.2142 19.0563 14.1933 21.5187 13 24.3996C11.8066 27.2806 11.4944 30.4508 12.1028 33.5092C12.7111 36.5676 14.2128 39.377 16.4178 41.582C18.6228 43.787 21.4321 45.2886 24.4906 45.897C27.549 46.5054 30.7191 46.1931 33.6001 44.9998C36.4811 43.8064 38.9435 41.7856 40.676 39.1928C42.4084 36.6 43.3331 33.5516 43.3331 30.4333C43.3445 28.1105 42.831 25.8201 41.837 23.7312C41.598 23.2291 40.9378 23.1393 40.5446 23.5325L37.3815 26.6956C37.1479 26.9292 37.0758 27.2769 37.1741 27.5924C37.4604 28.5109 37.6043 29.469 37.5998 30.4333C37.5998 32.4177 37.0114 34.3575 35.9089 36.0075C34.8064 37.6575 33.2394 38.9435 31.4061 39.7029C29.5727 40.4623 27.5553 40.661 25.6091 40.2738C23.6628 39.8867 21.875 38.9311 20.4718 37.5279C19.0687 36.1247 18.1131 34.337 17.7259 32.3907C17.3388 30.4444 17.5375 28.4271 18.2969 26.5937C19.0563 24.7604 20.3423 23.1934 21.9923 22.0909C23.6422 20.9884 25.5821 20.4 27.5665 20.4C28.5307 20.3955 29.4889 20.5394 30.4074 20.8257C30.7228 20.924 31.0705 20.8519 31.3041 20.6183L34.4673 17.4552Z" fill="#5F65F6"/>
<path d="M27.87 24.0733C28.1497 23.7853 27.9666 23.3187 27.5665 23.3527C26.1455 23.3528 24.7565 23.7753 23.5762 24.5667C22.3958 25.358 21.4774 26.4824 20.9376 27.797C20.3978 29.1116 20.261 30.5569 20.5445 31.9494C20.8281 33.3419 21.5192 34.6187 22.5301 35.6174C23.541 36.6162 24.826 37.2919 26.2219 37.5586C27.6177 37.8254 29.0613 37.6711 30.3692 37.1155C31.6772 36.5598 32.7904 35.6279 33.5674 34.4381C34.3445 33.2483 34.7503 31.8543 34.7332 30.4333C34.7668 30.0376 34.3037 29.8595 34.0229 30.1403L30.6912 33.472C30.2926 33.8873 29.8141 34.2178 29.2845 34.4436C28.755 34.6693 28.1852 34.7857 27.6095 34.7857C27.0339 34.7857 26.4641 34.6693 25.9345 34.4436C25.405 34.2178 24.9265 33.8873 24.5279 33.472C23.7736 32.7087 23.3511 31.6785 23.3525 30.6053C23.3345 29.9965 23.4453 29.3907 23.6774 28.8275C23.9096 28.2644 24.258 27.7566 24.6999 27.3373L27.87 24.0733Z" fill="black"/>
<path d="M43.8725 20.2068C43.5913 20.4867 43.5457 20.924 43.7476 21.2655C45.3869 24.0384 46.2556 27.2038 46.2572 30.4333C46.2571 34.1162 45.1657 37.7165 43.1208 40.7795C41.0759 43.8424 38.1691 46.2307 34.7677 47.6427C31.3662 49.0547 27.6226 49.427 24.0097 48.7127C20.3967 47.9984 17.0765 46.2294 14.4683 43.6292C11.8601 41.029 10.081 37.7142 9.35554 34.1035C8.63011 30.4928 8.99094 26.7481 10.3925 23.3423C11.794 19.9365 14.1733 17.0224 17.23 14.9681C20.2867 12.9138 23.8836 11.8113 27.5665 11.8C30.7965 11.8015 33.9625 12.6705 36.7357 14.3103C37.0766 14.5119 37.5129 14.4669 37.793 14.1868L42.8341 9.14567C43.2009 8.77887 43.1521 8.16992 42.7204 7.88226C37.3381 4.29556 30.8395 2.7446 24.3977 3.5307C17.6278 4.35684 11.4178 7.70346 7.00516 12.9036C2.59251 18.1038 0.301239 24.7757 0.587961 31.5898C0.874682 38.4038 3.71834 44.8596 8.55224 49.6707C13.3862 54.4819 19.8554 57.295 26.6707 57.5495C33.486 57.804 40.147 55.4812 45.3263 51.044C50.5055 46.6068 53.8227 40.381 54.6169 33.6073C55.3728 27.1595 53.7897 20.666 50.1748 15.2995C49.8863 14.8713 49.2808 14.8235 48.9148 15.1878L43.8725 20.2068Z" fill="#5F65F6"/>
<path d="M57.2366 6.49662L51.5033 0.76329C51.3337 0.583927 51.1199 0.452396 50.8834 0.381941C50.6469 0.311485 50.396 0.304592 50.1559 0.361956C49.9226 0.422558 49.7084 0.541014 49.533 0.706367C49.3576 0.87172 49.2268 1.07863 49.1526 1.30796L46.2859 9.62129L45.7126 10.1946L39.6639 16.3293L37.6573 18.336L33.5579 22.4353L31.5226 24.4706L26.5633 29.4299C26.4261 29.5586 26.3169 29.7141 26.2422 29.8866C26.1674 30.0592 26.1289 30.2452 26.1289 30.4333C26.1289 30.6213 26.1674 30.8074 26.2422 30.9799C26.3169 31.1525 26.4261 31.3079 26.5633 31.4366C26.6919 31.5737 26.8474 31.683 27.0199 31.7577C27.1925 31.8324 27.3785 31.871 27.5666 31.871C27.7546 31.871 27.9407 31.8324 28.1133 31.7577C28.2858 31.683 28.4412 31.5737 28.5699 31.4366L33.4719 26.5059L35.5073 24.4706L39.6066 20.3713L41.6133 18.3646L47.7479 12.23L48.3213 11.6566L56.6346 8.78995C56.8673 8.71317 57.0765 8.57798 57.2422 8.39731C57.4078 8.21663 57.5243 7.9965 57.5806 7.75795C57.635 7.5358 57.632 7.30344 57.5718 7.08277C57.5117 6.8621 57.3963 6.66038 57.2366 6.49662Z" fill="black"/>
</svg>
