<svg width="28" height="24" viewBox="0 0 28 24" fill="none" xmlns="http://www.w3.org/2000/svg">
<path d="M8.7977 23.36C19.2574 23.36 24.98 14.6921 24.98 7.17762C24.98 6.93394 24.9746 6.68485 24.9638 6.44117C26.077 5.63611 27.0377 4.63892 27.8007 3.49647C26.764 3.95775 25.6632 4.25901 24.536 4.38995C25.7228 3.67854 26.6115 2.56095 27.0372 1.24435C25.9207 1.90605 24.6997 2.37281 23.4265 2.62465C22.5686 1.71313 21.4344 1.1096 20.1991 0.907358C18.9638 0.705121 17.6963 0.915444 16.5926 1.50581C15.4888 2.09618 14.6103 3.0337 14.0928 4.17344C13.5754 5.31318 13.4477 6.59165 13.7297 7.81118C11.4689 7.69773 9.25722 7.11044 7.23797 6.08738C5.21871 5.06432 3.43699 3.62832 2.00831 1.8725C1.28218 3.12443 1.05999 4.60587 1.38688 6.01575C1.71378 7.42562 2.56523 8.65812 3.76821 9.46277C2.86509 9.4341 1.98175 9.19095 1.19118 8.7534V8.8238C1.19037 10.1376 1.64457 11.4112 2.47657 12.4279C3.30857 13.4447 4.46701 14.142 5.75499 14.4013C4.91839 14.6302 4.04035 14.6635 3.1888 14.4988C3.55224 15.6287 4.25936 16.6169 5.21148 17.3255C6.16361 18.0342 7.31322 18.4279 8.49988 18.4518C6.48528 20.0342 3.99667 20.8926 1.43486 20.8885C0.980545 20.8878 0.526677 20.86 0.0756836 20.8051C2.67821 22.4748 5.70564 23.3616 8.7977 23.36Z" fill="#2F2F2F"/>
</svg>
