<svg width="96" height="20" viewBox="0 0 96 20" fill="none" xmlns="http://www.w3.org/2000/svg">
<path fill-rule="evenodd" clip-rule="evenodd" d="M15.0364 0.47992V11.436C15.0364 15.0947 13.4113 16.6139 9.59597 16.6139C5.78204 16.6139 4.15554 15.0947 4.15554 11.436V0H0.482188C0.160261 0 0 0.160188 0 0.47992V11.6158C0 17.7341 3.91514 19.8733 9.59597 19.8733C15.2782 19.8733 19.1919 17.7341 19.1919 11.6158V0H15.5186C15.1981 0 15.0364 0.160188 15.0364 0.47992Z" fill="#2D2F30"/>
<path fill-rule="evenodd" clip-rule="evenodd" d="M68.2937 3.17899C68.5946 3.17899 68.7352 3.07916 68.835 2.85894L69.8992 0.239792C69.9596 0.080262 69.8992 0 69.7389 0H54.9429C53.5582 0 53.0366 0.419888 53.0366 1.35948V18.3735C53.0366 19.1734 53.4373 19.5332 54.5015 19.5332H68.2937C68.5946 19.5332 68.7352 19.4331 68.835 19.2136L69.8992 16.5941C69.9596 16.4342 69.8992 16.3542 69.7389 16.3542H57.112V12.8954C57.112 11.6957 57.7742 11.1558 59.5595 11.1558H65.0407C65.343 11.1558 65.4821 11.0564 65.5834 10.8364L66.6068 8.31712C66.6672 8.15696 66.6068 8.0773 66.4465 8.0773H57.112V3.17899H68.2937Z" fill="#2D2F30"/>
<path fill-rule="evenodd" clip-rule="evenodd" d="M38.395 16.3944H31.1453V12.8155C31.1453 11.6158 31.8075 11.0762 33.5957 11.0762H38.395C40.7034 11.0762 41.3458 11.9557 41.3458 13.7554C41.3458 15.5547 40.7034 16.3944 38.395 16.3944ZM31.1453 3.13886H37.6317C39.8008 3.13886 40.4025 3.9522 40.4025 5.63794C40.4025 7.32396 39.8008 8.13736 37.6317 8.13736H31.1453V3.13886ZM42.2497 9.23678C43.8552 8.39706 44.5173 6.81772 44.5173 4.95838C44.5173 0.639772 40.9845 0 37.3309 0H28.979C27.5943 0 27.0728 0.419888 27.0728 1.35948V18.3735C27.0728 19.1734 27.4734 19.5332 28.5376 19.5332H38.8168C42.6912 19.5332 45.462 18.0338 45.462 14.1351C45.462 11.796 44.4582 9.81652 42.2497 9.23678Z" fill="#2D2F30"/>
<path fill-rule="evenodd" clip-rule="evenodd" d="M87.8791 9.05674H81.0539V3.13919H87.8791C90.4292 3.13919 90.9915 4.11859 90.9915 6.09798C90.9915 8.09718 90.4292 9.05674 87.8791 9.05674ZM95.5477 19.1933L91.1518 11.6759C93.3406 11.1163 95.1063 9.67694 95.1063 6.01804C95.1063 1.27988 92.1555 0 87.2774 0H78.8862C77.5001 0 76.9785 0.419888 76.9785 1.35948V19.0534C76.9785 19.3731 77.1388 19.5332 77.4607 19.5332H81.0539V13.8354C81.0539 12.6357 81.7161 12.0957 83.5028 12.0957H87.1171L91.0913 19.2136C91.2122 19.4132 91.3331 19.5332 91.634 19.5332H95.3677C95.6292 19.5332 95.6292 19.313 95.5477 19.1933Z" fill="#2D2F30"/>
</svg>
