<svg width="50" height="49" viewBox="0 0 50 49" fill="none" xmlns="http://www.w3.org/2000/svg">
<path d="M31.25 29.4167C31.25 24.239 35.4473 20.0417 40.625 20.0417C45.8027 20.0417 50 24.239 50 29.4167V38.7917C50 40.5176 48.6009 41.9167 46.875 41.9167H34.375C32.6491 41.9167 31.25 40.5176 31.25 38.7917V29.4167Z" fill="#FFC659"/>
<path d="M0 29.4167C0 24.239 4.19733 20.0417 9.375 20.0417C14.5527 20.0417 18.75 24.239 18.75 29.4167V38.7917C18.75 40.5176 17.3509 41.9167 15.625 41.9167H3.125C1.39911 41.9167 0 40.5176 0 38.7917V29.4167Z" fill="#FFC659"/>
<path d="M47.083 16.2917C47.083 19.7435 44.2848 22.5417 40.833 22.5417C37.3812 22.5417 34.583 19.7435 34.583 16.2917C34.583 12.8399 37.3812 10.0417 40.833 10.0417C44.2848 10.0417 47.083 12.8399 47.083 16.2917Z" fill="black"/>
<path d="M15.833 16.2917C15.833 19.7435 13.0348 22.5417 9.58301 22.5417C6.13123 22.5417 3.33301 19.7435 3.33301 16.2917C3.33301 12.8399 6.13123 10.0417 9.58301 10.0417C13.0348 10.0417 15.833 12.8399 15.833 16.2917Z" fill="black"/>
<path d="M12.9292 29.8334C12.9292 23.1668 18.3335 17.7625 25 17.7625C31.6665 17.7625 37.0708 23.1668 37.0708 29.8334V45.4584C37.0708 46.9472 35.8639 48.1542 34.375 48.1542H15.625C14.1361 48.1542 12.9292 46.9472 12.9292 45.4584V29.8334Z" fill="#FFC659" stroke="#66AF8F" stroke-width="0.858333"/>
<path d="M34.7915 10.0417C34.7915 15.2194 30.5942 19.4167 25.4165 19.4167C20.2388 19.4167 16.0415 15.2194 16.0415 10.0417C16.0415 4.86402 20.2388 0.666687 25.4165 0.666687C30.5942 0.666687 34.7915 4.86402 34.7915 10.0417Z" fill="black"/>
</svg>
