<svg width="76" height="84" viewBox="0 0 76 84" fill="none" xmlns="http://www.w3.org/2000/svg">
<g opacity="0.3">
<circle cx="2" cy="2" r="2" fill="white"/>
<circle cx="14" cy="2" r="2" fill="white"/>
<circle cx="26" cy="2" r="2" fill="white"/>
<circle cx="38" cy="2" r="2" fill="white"/>
<circle cx="50" cy="2" r="2" fill="white"/>
<circle cx="62" cy="2" r="2" fill="white"/>
<circle cx="74" cy="2" r="2" fill="white"/>
<circle cx="2" cy="10" r="2" fill="white"/>
<circle cx="14" cy="10" r="2" fill="white"/>
<circle cx="26" cy="10" r="2" fill="white"/>
<circle cx="38" cy="10" r="2" fill="white"/>
<circle cx="50" cy="10" r="2" fill="white"/>
<circle cx="62" cy="10" r="2" fill="white"/>
<circle cx="74" cy="10" r="2" fill="white"/>
<circle cx="2" cy="18" r="2" fill="white"/>
<circle cx="14" cy="18" r="2" fill="white"/>
<circle cx="26" cy="18" r="2" fill="white"/>
<circle cx="38" cy="18" r="2" fill="white"/>
<circle cx="50" cy="18" r="2" fill="white"/>
<circle cx="62" cy="18" r="2" fill="white"/>
<circle cx="74" cy="18" r="2" fill="white"/>
<circle cx="2" cy="26" r="2" fill="white"/>
<circle cx="14" cy="26" r="2" fill="white"/>
<circle cx="26" cy="26" r="2" fill="white"/>
<circle cx="38" cy="26" r="2" fill="white"/>
<circle cx="50" cy="26" r="2" fill="white"/>
<circle cx="62" cy="26" r="2" fill="white"/>
<circle cx="74" cy="26" r="2" fill="white"/>
<circle cx="2" cy="34" r="2" fill="white"/>
<circle cx="14" cy="34" r="2" fill="white"/>
<circle cx="26" cy="34" r="2" fill="white"/>
<circle cx="38" cy="34" r="2" fill="white"/>
<circle cx="50" cy="34" r="2" fill="white"/>
<circle cx="62" cy="34" r="2" fill="white"/>
<circle cx="74" cy="34" r="2" fill="white"/>
<circle cx="2" cy="42" r="2" fill="white"/>
<circle cx="14" cy="42" r="2" fill="white"/>
<circle cx="26" cy="42" r="2" fill="white"/>
<circle cx="38" cy="42" r="2" fill="white"/>
<circle cx="50" cy="42" r="2" fill="white"/>
<circle cx="62" cy="42" r="2" fill="white"/>
<circle cx="74" cy="42" r="2" fill="white"/>
<circle cx="2" cy="50" r="2" fill="white"/>
<circle cx="14" cy="50" r="2" fill="white"/>
<circle cx="26" cy="50" r="2" fill="white"/>
<circle cx="38" cy="50" r="2" fill="white"/>
<circle cx="50" cy="50" r="2" fill="white"/>
<circle cx="62" cy="50" r="2" fill="white"/>
<circle cx="74" cy="50" r="2" fill="white"/>
<circle cx="2" cy="58" r="2" fill="white"/>
<circle cx="14" cy="58" r="2" fill="white"/>
<circle cx="26" cy="58" r="2" fill="white"/>
<circle cx="38" cy="58" r="2" fill="white"/>
<circle cx="50" cy="58" r="2" fill="white"/>
<circle cx="62" cy="58" r="2" fill="white"/>
<circle cx="74" cy="58" r="2" fill="white"/>
<circle cx="2" cy="66" r="2" fill="white"/>
<circle cx="14" cy="66" r="2" fill="white"/>
<circle cx="26" cy="66" r="2" fill="white"/>
<circle cx="38" cy="66" r="2" fill="white"/>
<circle cx="50" cy="66" r="2" fill="white"/>
<circle cx="62" cy="66" r="2" fill="white"/>
<circle cx="74" cy="66" r="2" fill="white"/>
<circle cx="2" cy="74" r="2" fill="white"/>
<circle cx="14" cy="74" r="2" fill="white"/>
<circle cx="26" cy="74" r="2" fill="white"/>
<circle cx="38" cy="74" r="2" fill="white"/>
<circle cx="50" cy="74" r="2" fill="white"/>
<circle cx="62" cy="74" r="2" fill="white"/>
<circle cx="74" cy="74" r="2" fill="white"/>
<circle cx="2" cy="82" r="2" fill="white"/>
<circle cx="14" cy="82" r="2" fill="white"/>
<circle cx="26" cy="82" r="2" fill="white"/>
<circle cx="38" cy="82" r="2" fill="white"/>
<circle cx="50" cy="82" r="2" fill="white"/>
<circle cx="62" cy="82" r="2" fill="white"/>
<circle cx="74" cy="82" r="2" fill="white"/>
</g>
</svg>
