<?xml version="1.0" encoding="UTF-8"?>
<svg width="639px" height="646px" viewBox="0 0 639 646" version="1.1" xmlns="http://www.w3.org/2000/svg" xmlns:xlink="http://www.w3.org/1999/xlink">
    <title>Group</title>
    <g id="Page-1" stroke="none" stroke-width="1" fill="none" fill-rule="evenodd">
        <g id="Group" transform="translate(2.013717, 0.056901)">
            <g id="lines-right" transform="translate(0.000000, 11.684550)" stroke="#FCD87C" stroke-width="4">
                <path d="M577.800283,131.580548 C619.807283,202.555548 609.987283,302.112548 574.325283,393.176548 C538.675283,484.208548 477.482283,566.010548 417.759283,601.358548 C298.496283,671.944548 133.089283,614.163548 48.5262833,471.284548 C-36.0374167,328.406548 -7.10341667,155.603548 112.159283,85.0165484 C172.028283,49.5835484 267.499283,25.5835484 358.594283,28.3615484 C449.742283,31.1415484 535.843283,60.6895484 577.800283,131.580548 Z" id="Path"></path>
                <path d="M631.005283,354.802548 C613.728283,435.445548 538.981283,501.937548 451.009283,544.658548 C363.066283,587.364548 262.615283,605.963548 194.755283,591.424548 C59.2442833,562.392548 -23.0981167,407.738548 11.6832833,245.394548 C46.4642833,83.0515484 184.938283,-24.2940516 320.449283,4.73854836 C388.474283,19.3125484 474.903283,66.4365484 539.953283,130.269548 C605.040283,194.138548 648.263283,274.252548 631.005283,354.802548 Z" id="Path"></path>
            </g>
            <rect id="Rectangle" fill="#FCD87C" fill-rule="nonzero" transform="translate(211.600197, 20.828647) rotate(-22.000000) translate(-211.600197, -20.828647) " x="195.600197" y="4.82864717" width="32" height="32" rx="8"></rect>
        </g>
    </g>
</svg>