<?xml version="1.0" encoding="UTF-8"?>
<svg width="639px" height="637px" viewBox="0 0 639 637" version="1.1" xmlns="http://www.w3.org/2000/svg" xmlns:xlink="http://www.w3.org/1999/xlink">
    <title>lines-left</title>
    <g id="Page-1" stroke="none" stroke-width="1" fill="none" fill-rule="evenodd">
        <g id="lines-left" transform="translate(2.000000, 3.000000)">
            <path d="M577.800497,131.580548 C619.807497,202.555548 609.987497,302.112548 574.325497,393.176548 C538.675497,484.208548 477.482497,566.010548 417.759497,601.358548 C298.496397,671.944548 133.089497,614.163548 48.526497,471.284548 C-36.037503,328.406548 -7.10350298,155.603548 112.159497,85.0165484 C172.028197,49.5835484 267.499587,25.5835484 358.594797,28.3615484 C449.742497,31.1415484 535.843497,60.6895484 577.800497,131.580548 Z" id="Path" stroke="#FCD87C" stroke-width="4"></path>
            <path d="M631.005497,354.802548 C613.728497,435.445548 538.981497,501.937548 451.009497,544.658548 C363.066497,587.364548 262.615566,605.963548 194.755697,591.424548 C59.244497,562.392548 -23.097503,407.738548 11.683497,245.394548 C46.464497,83.0515484 184.938897,-24.2940516 320.449597,4.73854836 C388.474497,19.3125484 474.903497,66.4365484 539.953497,130.269548 C605.040497,194.138548 648.263497,274.252548 631.005497,354.802548 Z" id="Path" stroke="#FCD87C" stroke-width="4"></path>
            <rect id="Rectangle" fill="#FCD87C" fill-rule="nonzero" transform="translate(604.613914, 205.885548) rotate(-45.000000) translate(-604.613914, -205.885548) " x="588.613914" y="189.885548" width="32" height="32" rx="8"></rect>
        </g>
    </g>
</svg>