<svg width="720" height="923" viewBox="0 0 720 923" fill="none" xmlns="http://www.w3.org/2000/svg">
<mask id="mask0_1672_37204" style="mask-type:alpha" maskUnits="userSpaceOnUse" x="0" y="0" width="720" height="923">
<rect width="720" height="923" fill="#5F65F6"/>
</mask>
<g mask="url(#mask0_1672_37204)">
<path d="M300.954 -245.268C403.692 -184.646 136.141 76.2237 681.663 202.495C969.748 269.178 837.171 502.227 1006.01 560.022" stroke="#FFC659" stroke-width="4"/>
<path d="M383.202 -294C472.815 -218.327 159.394 -2.91655 672.616 206.197C943.645 316.628 768.498 525.599 923.767 608.755" stroke="#FFC659" stroke-width="4"/>
<path d="M-123.609 -46.0602C-37.1875 61.9368 -434.578 234.615 104.812 596.002C389.659 786.848 150.033 984.916 309.277 1117.05" stroke="#FFC659" stroke-width="4"/>
<path d="M-14.3945 -65.0378C51.6044 53.8723 -376.801 158.395 93.4824 596.293C341.835 827.543 65.9719 981.99 200.064 1136.03" stroke="#FFC659" stroke-width="4"/>
</g>
</svg>
